<svg version="1.0" id="katman_1" xmlns="http://www.w3.org/2000/svg" x="0" y="0" viewBox="0 0 157.2 106.8" style="enable-background:new 0 0 157.2 106.8" xml:space="preserve"><style>.st0{fill-rule:evenodd;clip-rule:evenodd;fill:#1d1d1b}</style><path class="st0" d="M194.5 45.8c0 1.5 1.6 2.1 1.4 3.4 0 .6-.5 1-1.1 1-1.3 0-1-2.2-1.8-2.7-.8.5-2.1.5-2.9 1.1.4.7.7 1.4.9 2.1 1 0 .4-1.5 1-1.9 2.4-.4 1.5 2.5 2.4 3.6.4-.2.4-.8.6-1.2 1.5-.2 1.8 1.2 2.1 2.6s.6 2.2-.7 2.7c-1.2.4-3.5.6-5 1-.7.3-1.6.3-2.4.1-.4-.2-.5-.6-.5-1.2.4-.5 1.2-.6 1.6-1.1-.7-2-1.1-4.4-1.8-6.4-.5.1-1.1 0-1.6-.2-.1-.4-.2-.8-.1-1.2 2.4-1.1 5.1-1.7 7.9-1.7zm-2.7 9c1 .2 2-.4 3-.5 0-.6-.1-1-.4-1.2.1.9-.6 1.1-1.5 1-.5-.4-.6-1.1-1.3-1.3-.2.8.3 1.2.2 2zM220.1 47.8c0 1-.9 2-.9 3.2-1.1.5-1.8-1.2-1.1-1.9-2.5-3.4-5.6 1.7-4.6 5.4.5.7 2.5 1 2.8-.1-.6-.4-.8-1.1-.5-1.7 1.6-.5 4.3-.3 4.3 1.7-.4.4-1 .4-1.5.1-.9.8-.3 3.1-1.8 3.3-1.1-.7-2.7 0-3.9-.7-1.3-1.1-1.9-2.6-1.8-4.3.4-4 3.9-9.1 7.9-5.1.4-.1.8-.1 1.1.1zM183.2 48.5c.3.4.4.8.5 1.2-.2.4-.8.4-1.2.6.3 3.5 1.8 6.3 1.6 10-1.2.8-2.1-.7-2.8-1.5-1.5-1.8-3.3-4.1-4.5-5.7-.6.2-1.2.1-1.8-.1-.4-2.2 2.7-2.8 4.1-2.5.3-.2.2-.8.4-1.1 1.3-.4 2.5-.7 3.7-.9zm-2.3 5c-.1-.5.3-.5.2-1-.4-1.6-1.1-1.2-2.4-.6.6 1.6 1.9 2.6 2.9 3.7-.1-.7-.3-1.5-.7-2.1zM228.7 53.5c-.5-1-2-.9-2.9-1.4-.3.7-1 1.5-.7 2.4.9-.4 2.6-2 2.7 0 .1 1-1.8 3.3-2.2 4.1-.6 0-1.2 0-1.5-.3.1-.6.2-1.3-.1-1.7-.5.5-.8 1.1-1.1 1.7l2.7 1.2c.6-.7.8-2.3 2-2.1 1.5.3.3 3.1-.3 4.1-.9 1.5-1.6.8-3.1.1-.9-.5-1.9-.7-3.1-1.3-1.1-.5-3.3-1.4-2.1-2.9.6-.1 1.3-.1 1.9 0 1.4-1.6 2.1-4 3.2-5.9-1.7-.7-1.3-2.7 1.1-1.9.5.2 1 .7 2 1.2 1.5.6 3.4 1.3 3.6 2.2 0 1-.3 1.9-.7 2.8-.3.7-1.9 1.6-2.1.1-.2-.7.4-1.5.7-2.4zM209.1 52.6c.1.2.3.3.2.6-.2.2-.5.3-.7.2-.3-.3-.1-.9.5-.8zM208.5 53.8h.5c.1.2.1.4 0 .6h-.5c-.1-.1-.1-.4 0-.6zM179.1 60.2c.8 2-4.8 5-3.2 1.4-.2-.3-.4-.5-.6-.6-.7.3-1.3.7-1.8 1.3.1.9 1.5.5 1.9 1-.1 1.1-1.5 3.4-3.2 3-1.6-.4-.1-1.6 0-2.4.1-.9-.8-2.4-1.2-3.5-.5-1.4-.9-2.7-1.3-3.4-.4-.8-1.3-2.5.5-2.5.3.1.6.2.9.4 1 .9 2.1 2.2 3.2 3.1s2.1 1.4 3.1 2.2c.8.1 1.2-.5 1.7 0zm-6.2-.4c.1-.2.6-.1.6-.4-.4-.1-.8-.8-1.2-.6.4.2.2.9.6 1zM236.6 56.8c.3 1.1-.7 1.6-1.4 2 0 .3 0 .6-.2.7-1.4 1.2-2 3.1-3.3 4.3.4.7 1.2.9 2.4.9.4 0 .3-.5.7-.7.1-.1.5 0 .6-.1.5-.5 1-1 1.4-1.5.5-.5.8-1.1 1.1-1.7 0-.5-.5-.8-.3-1.4.4-1 1.6-.1 1.7.5 0 2.1-1 4.1-2.6 5.6-1 .9-3.1 2.1-4.5 1.8-.8-.2-2-1.6-2.7-2.2-.5-.5-2.2-1.8-2.2-2.6 0-1.6 2.2-.7 2.7.1 1.3-.6 2.1-2.7 3.4-4 .3-.3.8-.4 1.1-.6.5-.5.7-1.7 2.1-1.1z" transform="translate(-123.807 -34.121)"/><path class="st0" d="M237.1 58.5c0 .3-.2.3-.5.3v-.3c.1-.1.3-.1.5 0zM199.4 69.2c-1.3 1.1-3.4 1.3-4.9 2.2 1.4-1.1 3.1-1.9 4.9-2.2zM201.2 70c-.7.1-1.4 1.2-2 .6.3-.6 1.3-.5 2-.6zM199.2 70.8c-.1.3-.4.5-.7.5-.1-.4.3-.8.7-.5zM193.2 72.1c-.5 1.1-1.9 2-2.6 3.4-.4.9-.4 1.9-.9 2.8.1-2.5 1.3-4.8 3.5-6.2zM176.8 75.7c-2.4 2.1-4.3 4.7-5.4 7.7-.1-1.1.9-2 .4-2.9.4.1.4-.2.5-.4-.4-1-1.6-.8-2.5-.3.1.4.8-.1 1 .4-.4-.1-1.2.3-1.1-.3-.5.2-.9.5-1.4.7-.1.4.2.5 0 .6-.7 0-1.3.5-1.4 1.2-.8.1-1.1.7-1.4 1.3-.3-.9 1.4-1.7 1.6-2.8 1.8-1.9 3.9-3.3 6.3-4.3 1.4-.5 2.3-1.2 3.4-.9zM192.3 76.7c.3.1.4.4.3.6 1 .5 1.5 2.7.4 3.5-.8.1-1.5.9-1.5 1.7-.1-.3-.5-.3-.7-.4-.2-1.7-.1-3.3.4-4.9.7.2.8-.3 1.1-.5zM238.1 77.1c-.2.4-.3.2-.1.6-.5.3-.9.6-1.3 1.1-.2-.2-.5-.4-.9-.5.4-1 1.4-.7 2.3-1.2zM195.4 78.5c.3-.1.3.2.5.1-.2.1-.1.4-.4.4.1-.2-.2-.2-.1-.5zM162.8 79.2c-.2.2-.8 0-1.2.1.1-.5.8 0 1.2-.1zM240.6 79.1c0 .3 0 .5-.3.4-.2-.2 0-.4.3-.4zM193.3 81.6c.3 0 .3.2.5.2v.7c-.6.3-.8-.5-.5-.9zM165.2 82.7c.3.2-.2.6-.2.9-.3-.3.2-.6.2-.9zM192.8 82.8c1.7.8-.3 4 1.5 5 .7-.1 1.5 0 2.1.3.6.1.7-.3 1.3-.2.3.6-.9 1.2-1.5.6-1 .2-2 0-2.8-.6-.8-1.3-.4-3.8-.6-5.1zM183.6 83.4c.4-.1.4.4.5.6-.3 0-.4-.3-.5-.6zM171.4 83.5c.3.4-.3.8-.2 1.3-.2-.5-.1-1 .2-1.3zM183.6 84.2c.2 0 .3.1.4.1 0 .2-.2.2-.4.2v-.3zM185.8 85c0 .3-.3.6-.5.3 0-.2.2-.3.5-.3zM216.4 85.6c.3 0 .5 0 .4.3-.3.1-.4 0-.4-.3zM217.6 85.7h.3c-.1.9.4 1.9-.3 2.1.1-.8-.3-1.4 0-2.1zM211.7 85.8c.4-.1.3.3.6.2 0 .6 0 1.2-.4 1.4-.3 1.5 1.3 1.2 1.7 2 .2-.2.5-.4.9-.4.3.5-.4.5-.2 1.2-1.3 0-3.2 3.1-4.4.7-.1 0-.1.3-.1.4-.6-.3-1.2-.9-1.5-1.5.8-.2 1.4-1.1 2.4-.9v.5c.2-.2.6-.3.9-.2.1.3-.2.3 0 .5h.4c.2-.1.2-.3.2-.5s-.6 0-.6-.2c-.1-.7-.3-1-.1-1.7h.4c-.6-.2-.4-1-.2-1.5zM186.5 85.9c.3.8.3 1.7 0 2.5-.3-.8-.3-1.7 0-2.5zM187.6 86.1c.1.3-.4.8-.5 1.2-.3-.4-.1-1.3.5-1.2zM200.4 86.2c.5.7-.8 1.2-1.2 1.7 0 .3.5.1.4.5-.4.7-1.2.9-2.4.9.3-.5 1.1-.5 1.5-.9 0-.2-.6 0-.6-.2.3-1.2 2-.9 2.3-2z" transform="translate(-123.807 -34.121)"/><path class="st0" d="M195.2 86.9c0-.2-.1-.2-.1-.4.2.2.5.1.9.1 0 .3-.3.3-.5.3.3.1.4.5.6.6-.6.4-1.4.1-1.8-.5-.1-.1-.1-.3-.2-.5.5-.3.9.2 1.1.4zM233.2 86.8c.3-.4.4.3.3.6-.3 0-.1-.5-.3-.6zM190.8 86.9c.3 0 .3.2.3.5-.2 0-.4-.2-.4-.4.1 0 .1-.1.1-.1zM197.3 87c.2 0 .3.1.4.1-.1.2-.2.3-.4.3V87zM205.5 87c.2.2.6.2.5.5-.3.3-.5-.1-.5-.5zM209.3 87.4c-.2.2-.6.2-.5-.2.2-.2.6-.1.5.2zM178.6 87.2c.2 1 .3 2.1.2 3.1-.2-1-.2-2.1-.2-3.1zM197 87.9c-.2.2-.8.1-.7-.3.2-.3.7-.1.7.3zM208 87.5c-.1.3-.4.2-.6.1 0-.3.5-.2.6-.1zM192.2 88.9c.8 1.9-1.9 1.9-1.4.3.5-.1.9-.2 1.4-.3zM189.3 89.2c.4.4.7.8.9 1.3-.4-.3-.9-.5-.9-1.3zM194.7 89.4v.6c-.6.2-1.6.2-1.8.9-.2-.1 0-.6-.1-.9.6-.2 1.1-1 1.9-.6zM212.8 92c.1 0 .2.1.2.2 0 .3-.3.4-.5.4-.1-.2.2-.3.3-.6zM204 93.3c.1.4-.3.3-.6.3 0-.2.3-.2.6-.3zM209.8 93.5c0-.2.8-.2.6.1-.2.1-.4 0-.6-.1zM203.1 93.8c-.2.2-.1.6-.4.5 0-.3.1-.4.4-.5zM193.6 94.4h.3c0 1.1-.1 1.5-.2 2.6-.3-.9-.4-1.8-.1-2.6zM192.5 94.7c.7 1.6 1 3.5.6 5.2-.7.4-1.3-1.2-.4-1.4-.3-1.2-.3-2.5-.2-3.8zM203.8 95.7c.1 0 .1.2.1.3-.3-.1-.4.1-.6.1-.1-.4.4-.2.5-.4zM202.1 96.3c.2.1-.3.9-.1 1.5-.2-.3-.4-.6-.5-1 .3 0 .4-.3.6-.5zM207.2 96.6c0 .6-.1 1.1-.7 1.1-.1-.7 0-1.1.7-1.1zM200.7 96.8c.1.6-.4.5-.4 1-.3 0-.2-.4-.2-.7.3.1.2-.3.6-.3zM206.1 97.1c0 .4.1.9-.1 1.1-.3 0-.3.2-.6.1-.3-.7 0-1.6.7-1.2zM194 97.8c.6.5 1.9 2 .9 2.9-.9-.3-.9-1.6-.9-2.9zM169.8 106.3c-.8-.8.2-1.6.5-2.1 0-1.1-1-2.9-2.2-2.7-1.1.2-.5 2-.3 2.5.4.8.7 1.6 1 2.5 0 2-1.7 3.6-3.7 3.6-.3 0-.7-.1-1-.2-1.5-.5-2-2-2.5-3.6-.2-.3-.8-.2-1-.5-.2-.6-.1-1.2.1-1.8.6-.4 1-.3 1.6-.6.6-.4.6-1.1 1.4-1 1.8.2-.1 2.9-.1 3.3-.3 2.5 3.2 2.8 3.2.7 0-.7-.9-1.2-1.3-2-1.1-2.7.6-6 3.9-4.9 1.5.8 2.5 2.3 2.7 4 1.5 1.1-.7 3-2.3 2.8zM196.2 99.5c.3 0 .2.5-.1.5-.1-.1 0-.3.1-.5zM197.7 99.7c.1.5-.5.6-.7.4-.2-.4.4-.6.7-.4zM193.3 101.8c-.6-.1-1.3-.9-.7-1.6.8-.1 1.2 1 .7 1.6zM198.7 100.3c0 .4.1.9-.1 1.1-.4 0-.7-.1-1-.3.2-.3 0-.5.1-.7.5-.1.7-.3 1-.1zM204.1 100.6c-.1.3-.3.6-.5.9-.3-.1-.5-.3-.4-.6.2-.2.6-.5.9-.3zM204.4 100.6h.5c0 .4-.1.8-.4.9-.1-.2-.1-.6-.1-.9zM237.6 113.1c.3-.7.6-1.4 1.1-2-1.4-1.6-3.5-2.5-4.7-4.2-.4-.1-.6-.4-1.1-.4-.1-.6-.7-.8-.5-1.7 2.1-.2 3 1.4 4.3 2.4 1.5.3 2.3 1.3 3.4 2 .8-.6 1.4-2.8-.1-3 0-.3 0-.6-.1-.7-1.2-.6-2.1-2-3.6-2-.6 0-1 .5-1.6 0-.2-.4-.2-.8 0-1.2 3.2-1.8 7.4 1.8 8.5 4.1.2.7.2 1.5.1 2.2-.7 1-1.4 1.9-2.2 2.8-1.1 1-2.2 3.7-3.5 1.7zM208.3 103.1c-.2.8-1 1.2-1.8 1.4.2-.9.9-1.4 1.8-1.4zM198.8 104.3c.2.5.2 1.1 0 1.6-.8-.1-1-1.5 0-1.6z" transform="translate(-123.807 -34.121)"/><path class="st0" d="M179.5 110.9c-.8 1.2-1.1 3.4-3.1 3-.7-1.2.5-2.3 1.1-3-.6-1-2.1-1.2-2.7-2.2-.6.6-1.1 1.2-1.6 1.8.6 1 1.5-.2 2.4-.2 1.8 1.2-1.8 4.8-2.7 4.8-1.2 0-1.4-1.5-.6-2.6-.8-.3-1.2.6-1.7 1 .2.5 1.6 2.2 2.2 2.2 1 0 1.1-2 2.6-1.3 1.2 1 .1 1.9-.5 2.7-.6.7-1.1 2.1-2.5 1.6-.4-.2-1.3-1.5-1.8-2-.8-.8-1.9-1.9-2.5-2.4-.9-.7-2.8-1.8-1.2-3 .7-.1.9.6 1.5.6.8 0 1.1-.8 1.8-1.6.3-.4 1-.6 1.3-1 .5-.7 1-1.4 1.6-2-.3-.6-1-1.2-.5-2.1 1.2-.5 2.4 1 3.3 1.8 1.3 1.2 2.5 2.4 3.6 3.9zM228.4 109.4c.3 1-.5 1.7-.4 2.5.5.9 1.2 1.7 1.9 2.5.8.8 1.8 1.4 2.4 2 .6-.1 1.1-.5 1.4-1.1-.3-.6-.7-1.2-1.2-1.7 0-.9.1-1.5.6-1.6 1.1-.3 1.6 1.3 2.1 1.9.4.4 1.4.8 1.4 1.4.1 1.1-2.7 2.6-3.6 3.5-.7.7-1.4 2.5-2.5 2.6-.7 0-1.2-.5-1.3-1.1v-.1c0-.6.6-1.2.6-1.7.1-.8-.3-1.2-1.1-1.7-.5-1.6-1.6-2.6-2.7-3.6-.8.3-2.3 1.2-2.5-.2.1-1.3 3.6-3.7 4.9-3.6zM184.2 113.6c.4-.1.8-.1 1.2-.2 1 .6 2 1.4 2.9 2.1.1.8-.2 1.3-.7 1.5-.6 0-.5-.6-1.1-.5-1.2 1-2.3 2.1-3.2 3.3-1 1.2-2.4 3.3-4.4 3-.9-1.5.2-3.4.6-5.5.3-1.4.7-2.8 1.3-4.1-.5-.5-1.8-1.9-.4-2.4 1.4-.3 3.3 2.1 3.8 2.8zm-2.8 4.9c.5-.1 1-1.1 1.3-1.8.7-.3 1.4-.6 1.6-1.4-.4-.5-1.2-.6-1.7-1.1-.4 1.4-.8 2.8-1.2 4.3z" transform="translate(-123.807 -34.121)"/><path class="st0" d="M220.8 113.6c3-.3 5.8 3.4 6 6.4.1 1.1 0 2.2-.3 3.3-.5 1-2.7 2-4 1.8-.9-.3-1.8-.8-2.5-1.5-.9-1-1.7-2.1-2.1-3.3-.9-2.9.1-6.4 2.9-6.7zm3.7 5.4c-.5-1.1-1.3-2.1-2.2-2.9-1.7-.8-2.4.5-2.5 1.8-.1 1.8 1.4 3.2 2 4 1 0 1.8.9 2.6 0 .3-.9.4-1.9.1-2.9zM196.8 118.4c-.5 1.6.4 4.6-2 4.3-.8-.7-.2-2.2 0-3.2-.7-.7-2.1-.2-3-.7-.4.8-.7 1.6-.7 2.5 1.6.2.9-1.4 2.2-1.3 1.9.2 0 3.1 0 4.5.2-.1 1-1.1 1.8-.6.7 1.3.1 4.9-1.1 5.1-.9.2-2.4-.6-3.7-1-1.9-.5-3.4-.9-4.4-1.8 0-.6-.1-1.2.2-1.5.7-.1.9.3 1.5.2 1.1-.7.5-3.1 1.5-4-.1-1.2.4-1.7.6-2.5-.7-.5-2.2-1.2-1.2-2.5 1.1-.5 2.1.4 3.1.6 1.9.6 4 .6 5.2 1.9zm-6.8 6.9c1 .2 1.9.6 2.9.7.2-.2.5-.9.2-1.3-.2.5-.9.8-1.4.5-.1 0-.1-.1-.2-.1-.2-.8-.2-1.7-.9-1.9-.1.8-.7 1.2-.6 2.1zM214.4 118.5c-1.2-.1-2.1.1-2.6.7.2.7.3 1.4.4 2.1.6-.4.2-.6.2-1.4.4-.3.7-.8 1.6-.6.7.8 2.5 5.4.6 5.8-1.1.2-1.3-.7-1.6-1.5-.1.9.1 1.8.5 2.6.8 0 1.7-.1 2 .3-.2 2.1-3.1 2.5-5.7 2.7-1.9-1 .1-2.1 1.2-2.6-.8-2-1-4.7-1.7-6.7-1-.2-1.2.3-1.8.4-1.3-1.6-.3-2 1.5-2.6 1.9-.6 4.6-1.4 6.7-1.2.8.5 2.3 4.6.4 4.7-1.1.1-1.1-2.1-1.7-2.7z" transform="translate(-123.807 -34.121)"/><path class="st0" d="M201.3 118.8c.2 2.9 1.9 4.3 2.4 6.9.1-1 0-2.1-.3-3.1.5-.6-.2-1.4.3-2.1-.4-.6-1.6-.5-1.6-1.3-.1-1.7 6.2-1.7 4.5.7-.2.2-.8.1-1.1.2-.1 2.2-.1 4.5.1 6.7.6.5.6 1.5 1.6 1.5.1.4-.2.9-.6 1-.3 0-.5-.1-.4-.5-.5 1-1.5 1.4-3 1.1-.2-.2-.5-.3-.5-.6-.7 1.3-5 1-5.9-.1-.1-1.2 1.2-1 1.9-1.4v-7.3c-.4-.6-1.3-.7-1.7-1.3.2-1.9 3.3-1.1 4.3-.4zm-.6 6.1c.1.9-.6 2.5.3 2.8 1-1 .1-3.3-.4-4.3-.3.4 0 1.1.1 1.5z" transform="translate(-123.807 -34.121)"/><path class="st0" d="M207.2 125.8c0 .3.2.3.1.6-.1.2-.4.3-.6.1-.2-.1-.3-.4-.1-.6.1-.1.4-.2.6-.1zM206.5 127.1h.3c.1.1.1.5.1.7h-.5c0-.2 0-.5.1-.7zM171.3 86.7c-.3-.4-.1.6-.4.4-.1-.7.2-1.1.1-1.7-.2.4-.3.8-.3 1.3-1.3-1.3-3-2-4.8-1.8-.5.1-.8.4-1.3.3-1-1.1-1.9-2.4-3.6-2.8-2.2-.1-3.6 1.2-5.2 1.9.5-1.7 2.4-2.1 3.1-3.6.7-.1 1-.8 1.6-.7.1 0 .1-.3.1-.4 1.1.3 1.1-1.2 2.1-1 .6-1.3 2-.9 3.2-.4-.3-.3-.7-.6-.9-1.1.5-.4 1.2.1 1.5-.5.3.2.2.8.9.6-.1.3-.1.6-.4.5.4.4.6 1 1.4.6-.1.4-.5.5-1 .6-.4 1-.9 2-1.6 2.9 2.5-3.8 7.2-6.3 13-7.2.2-.3.3-.7.3-1.1-2-.4-4.1-.4-6.1 0-8.2 1.9-15.3 5.7-18.6 12.3-.3-.3.4-.7.2-1.3.8-1.1 1.5-2.2 2.1-3.3 4.2-4.7 11.1-8.2 19.1-8.7 1.8-.2 3.6.1 5.2.9-.2.6-1.4.6-1.4 1.4 0 .6 2 2.8 2.7 3.3 1.1 1 2.3 1.9 3.5 2.7.8.5 2.1.8 2.7 1.5-.7.4-2-.5-2.6-1-2.9-1.3-4.8-3.6-7-5.7-.4 3.7-.5 7.5-.3 11.2.4-.2.2-1.1.2-1.6.5 0 0 .4.1.7.4.1.3-.4.3-.7-.1-.4-.3 0-.5-.2 0-.8.1-1.5.2-2.2.5-.1-.2.4.3.3.4-.3-.2-.5-.3-.6.2-1.2 1.6-1.8 2.8-1.7 0 .2-.4 0-.5.1 0 .5.7.2.6.6-.6.1-.2.5-.6.6.4.2.8.4 1.2.5 0 .2-.4.1-.3.3.2.3.7.2 1.2.1.2.1.1.6.4.5 0 .3-.1.7-.3 1 .5-.1.1.1.3.3.5.1.5-.2.6-.4.3.2.4.6.4 1 .1.3.4-.2.5.1.5 0-.2.3-.2.5h1c.2.5.2 1 .2 1.5-.5.1-.6-.3-1-.3-1.8.4-3.5 1.2-4.8 2.5-.5.6-.7 1.5-1.5 1.8v-.6c-.3 0-.1.4-.4.3-.8-5.1-1-10.3-.5-15.5-.4.1-.8.2-1.1.4-2 1.6-4.4 5.9-5.4 9.1.1.2.3-.4.7-.2 0-.2-.4-.1-.3-.4.6-1.3.7-2.3 2-2.8.1-.3-.3-.2-.2-.6.3-.4 1.1-.3 1-.9.4-.1.2.5.6.3.4-.1-.1-.4.2-.6.3 0 .8-.3 1.1 0-.2.2-.6.1-.6.4.3.4.5-.2.9-.1.8 3.3.8 6.5 1.2 10.5-1.3-2.1-3.2-5.9-6.7-4.1-.1.1-.2 0-.1 0zm-9.7-7.4c.4-.1 1 .1 1.2-.1-.4.1-1.1-.4-1.2.1zm12-2.7c-2.4.9-4.6 2.4-6.3 4.3-.2 1.1-1.9 1.9-1.6 2.8.3-.6.6-1.2 1.4-1.3.1-.7.7-1.1 1.4-1.2.2-.2-.1-.3 0-.6.4-.3.9-.5 1.4-.7-.1.6.7.2 1.1.3-.2-.5-.8 0-1-.4.8-.5 2.1-.7 2.5.3-.1.2-.1.5-.5.4.5.9-.5 1.7-.4 2.9 1.1-3 2.9-5.7 5.4-7.7-1.3-.3-2.2.4-3.4.9zm-8.6 7c0-.3.5-.6.2-.9 0 .3-.5.6-.2.9zm6.2 1.1c-.1-.5.5-.9.2-1.3-.3.4-.4.9-.2 1.3zm7.6 5.6c.1-1 0-2.1-.2-3.1 0 1.1 0 2.1.2 3.1zM239 82.8c.5-.2.7.7.9 1.2-.4.1-.5-1-.9-1.2zM217.3 84.7c.1.2.5.5.2.7-.3-.2-.1-.2-.2-.7zM210 91.7c.4.1.5.5.6.9-.1 0-.7-.4-.6-.9zM195.6 103.5c0 .6.8.5.9 1.1-1.4-.4-1.9-2.2-3.5-2 .1-.3.6-.3 1.1-.3.2.4.6.6.9.9 0-.4-.7-1.3-.6-1.8.1-.2.5-.1.6-.2.2.6.6 1.1 1.1 1.5.1 0 .1-.9-.2-1 0-.3.2-.4.3-.6.3-.1.4.6.6.2 0 .3.2 1 .6 1.2.3-.2-.3-.6 0-1 1.1.3 2.3.4 3.4.5-.1-.2-.5-.2-.4-.5-.4-.1-.2.5-.6.4-.5-.2-.7-.8-.4-1.3.1 0 .2 0 .2-.1.4.4 1.4.3 2 .4 0 .4-.2.8-.4 1.1.4 0 .7-.1 1.2.2.2-.4-.7-.4-.5-1.1.3-.3.8-.3 1.2-.1v.6c.9.2 1.8.2 2.7-.1-.3-.1-.4-.4-.3-.9.2-.1.4-.2.6-.1.2.2-.1.4 0 .7.7-.1 1.3-1.2 2.5-1.2.1.1.1.5.1.7 1.1-1 1.1-3 1.7-4.4.5.3 0 1.2.1 1.8 1-1 .1-3.9 1.7-4.3.1 1.4-.7 2.8-.9 4.4.5.3.6 2.2-.6 2.1-.1-.2-.2-.4-.1-.6-.3.5-.5 1-.6 1.6 0-.1 1.1-.1 1.1-.6.5.2.7.7.6 1.1 0 .1-.1.3-.2.4-.8-.1-1 .3-1.6.3.1-.2.2-.5.3-.7-.3-.1-.3.2-.6.1 0-.3 0-.6-.1-.9-.3.6-.8 1.1-1.3 1.5-1.4-.1-2.4.9-3.6 1.3.8.5 1.6-.6 2.6-.5 0 .6-.7.4-.7.9-.1.3.3.2.3.4-1.1 1.1-2.7 2.5-4.7 1.6-.1-.5.4-.5.9-.5-.5-.9-1.5.6-2.2.4-.7-.1-1-1-.3-1.7.5 0 .6.4.7.6.5-1 1.6-1.5 2.7-1.1-.5-.3-1.2-.3-1.6-.6-.1-.4.2-1.1-.2-1.2-.5.2 0 .6.1.9-.2.5-.8.7-1.3.6-.2-.6.2-1-.2-1.5-.1.1-.3.1-.4.1.3.3.5 1.3 0 1.6-.6-.2-.6-1.2-.7-1.9-.6-.1-.8.4-1.3.4.3.2.9.2 1.1.6-.4.7-1.1.2-1.8.1-.4.2-.2.3-.2.9-1.3.2-1.4-.3-1.8-.4zM205.6 51.8c.2-1.4-.1-3.1 0-4.3-.3-.6-1.3-.5-1.6-1.1.2-1.8 3.7-1.4 4.8-.7.1 1.1-.5 1.3-1.3 1.5-.5 2.1.2 4.2 0 6.3.1.6.8.6.7 1.4.1.2.7-.2 1 .1 0 .5-.5.6-.9.7-.4.1-.2-.4-.4-.4-.5.4-.6 1-1.4 1.1-.7 0-1.4-.2-1.9-.5-1.9.7-3.9.7-5.8-.1 0-.3 0-.7.1-1 .5-.1 1-.3 1.5-.5.1-2.3.3-4.5.2-7-.4-.6-1.3-.4-1.4-1.2-.1-1.4 3-1.4 3.7-.4.7 2.3 2 3.9 2.7 6.1zm-2.9 2.3h.4c1-.8.2-2.6-.4-3.7-.2 1.2-.2 2.5 0 3.7zM202.9 84.1c-.3-.1-.4.1-.6.1.2.2.7.1 1 .3 0 .4.3.6.2 1.1 1 .6-.5 1.4-.3 2.1-.2 0 0-.4-.1-.5-.5 0-.3.6-.7.6-.5 0-.4-.4-.7-.5-.5.2-.1.5-.1 1-.2.4-.6.6-.7 1.1-.1.4.3.3.3.5-.4.5-.8 1.1-1.1 1.7-.1-2.3 1.7-4.3 1.5-6.6 0-.4.6-.1.6-.3.1-.4-.6-.1-.9-.2-.1-.2-.3-.3-.3-.6-1.3-.2-1.6-1.2-2.7-1.6.1.9 1.8 1 2.2 2-.6.4-1.1-.3-1.5-.5-.8.1-1.6-.3-1.9-1.1-.5.6-2.3 1.1-2.9.3.4-.4.6-.9.6-1.5 0-.2-.3-.2-.5-.2.8-2-1.3-3.2-.6-4.9.5.3.5 1 1.1 1.2.5 1.7.8 3.6 2.1 4.4 0-1.1-.6-1.9-.4-2.6.9.6 1.7 1.2 2.5 1.9-.2-.8-.9-1.1-.7-2.4-.4 0-.4.4-.9.3.1-.7-.4-1-.5-1.7-.1-.9-.1-1.9.1-2.8.4-1.8 2.3-2.3 3.5-3.2.3 0 .5.2.9.1-.4-.6.9-.2 1-1 1 .1 2 0 3.4.1-.7-.5-2.2-.3-2.2-1.5.3 0 .7.1 1 .3.3-.1-.1-.3 0-.5 2.6-.3 5.2.5 7.2 2.2 2.2 1.9 3.9 4.3 3.9 7.3.1 1.1-.2 2.2-.9 3.1-.1-.8.5-1.7.3-2.6-.6.6-.7 1.7-1.2 2.4-.5 0-.4.1-.9 0-.1-1.1-.7-1.8-.6-3.1-1.2.9.8 2.6-.5 3.4.7 1.4-.2 2-.7 2.9-.7-.7-2.2-.7-3-1.3-1.2.2-1.8.9-3.1 1-.2.2.1.5-.2.7-1.3.5-1.5-.5-2-.9zm3.5-14.4c-.2-.1-.9-.2-1.1 0 .2.1 1 .2 1.1 0zm.6 1.5c0-.3-.7-.4-.9-.2.3.1.7 0 .9.2zm2 .1c.4.4.5.4 1.2.3-.1-.4-.5-.6-.9-.5-.1.1-.2.1-.3.2zm2 1.2c-.1-.4-.4-.6-1-.5.1.5.8.3 1 .5zm2.4 2.2c-.2 0-.6-.3-.7 0l.5.2.2-.2zm-5.6 6.7c.6-.1 1.1-.3 1.6-.6-.2-.6.2-.6.1-1.3-.4.7-1.6 1.3-1.7 1.9zm-7.2 1c.8 0 1 1 1.8.6-.8-.4-1.4-1-2-1.6-.1-.4-.1-.9-.6-.9-.4.8 1.1 1.1.8 1.9zm5-.5c-.1-.3.3-.2.2-.5-.5-.1-.4.5-.9.4-.1.2.5.3.1.5-.5-.3-1.5.1-1.7.6.8.1 1.1-.6 1.8-.2.2-.5.8-.7 1.3-1-.3-.1-.6.5-.8.2zM239.1 78.6c.3 0 .2.4.2.6-.3.1-.7.1-.9.3-.3-.3.4-.6.7-.9zM233.7 79.7c-.1.7-.6.8-1.2 1-.3-.9.5-1.4 1.2-1z" transform="translate(-123.807 -34.121)"/><path class="st0" d="M238.7 82.3c.4-1.4-1.5-1.7-1.7-3-.1-.4.7-.5.4-.7.4-.1.9-.2 1-.6.4.3.8-.2 1.2.1.1.3-.1.4-.2.5.4 0 .8 0 1.2-.1.4.6 2.4.6 2.4 1.7 1.4 0 1.9.9 2.2 1.9h-.5c.1.4.5 0 1 .1.9 1 2.2 1.4 2.8 2.7-.9 0-1.7-1-2.6-1.2-1.9-.5-3.9.1-5.2 1.5-.1-.3-.3-.4-.3-.7-.6.5.6.9.3 1.7-1.4-1.9-2.2-4.3-4-5.9-.8-.7-1.8-1-2.4-1.9-2.2-.8-3.5-2.5-6.1-2.8 2.6 2.7 4.4 6.1 5.4 9.7.2 0 0-.5.1-.7.4-.1.4 0 .6-.1 0-.2-.5 0-.7-.1-.2-.5-.2-1.1 0-1.6-2-1.5 2.2-3.6 2.6-1.4-.3 0-.8-.1-.9.2.5.1 1.1 0 1.6-.1.1.4.4.5.5.9-.1.7-.9.6-1.3 1 .9-.1 1.9 0 2.8.2.3.9 1.1 1.7.9 2.5-2.3-1.3-4.3.6-5.9 1.3.1-.4-.2-.5-.1-1-.4-.2 0 .5-.4.3-.5-3-2.1-5.1-3.1-7.6-1-1.1-1.6-2.6-3.2-3.1-.6 3.7.2 9.3-.7 13.4.7-.2 0-1.5.7-1.3-.2-1.9.2-3.8 1.1-5.6.3 0 .6 0 .9.1-.3-.7-.8-.3-1.2 0-.1-.6.3-.8.3-1.3.8-.1 1.7-1 2.1 0-.4.4-.9.6-1.5.6.5.4 1.1-.1 1.5-.2.1.4.9.1.9.6-.2.5-.7.6-1.2.9.3.4.6-.2 1-.1.3.4.8.8 1.3 1 0 .3-.3.4-.4.2-.1.4.4.3.1.6-.4.2-.1-.4-.3-.3-.3.1.1.4.1.5.3 0 .8.1.7-.3.7.8.1 1.3.5 2.2-3.6-.7-5.2 2.1-6.6 4.3-.2 0 0-.5-.2-.5-.3.2-.1.9-.5 1-.1-.5.2-.7.1-1.3-.3.3-.3.7-.2 1.3-2-1.3-3.6-4.4-7.1-4.3.3-.5.2-.7.3-1.3.3-.1.1.3.4.2.4-.3-.7-.4-.3-.7.8-.1 1-.3 1.6-.4-.1-.4-.7-.2-.6-.7.8 0 .8-.8 1.4-1-.1-.3-.7 0-.7-.2.1-.3.3-.4.6-.4.1 0 .2.1.3.2v-.4c.6-.1 1 .3 1.4.1-.4-.3-.8-.4-1.3-.5.6-.5 1.3-.7 2-.7.2-.1-.4-.5-.3-.9.8-.4 1.7-.2 2.2.4 0 1.4.8 3.8.1 5.6.7.6.2 2.1.2 3.1.7-4.5 1.1-9.6.2-13.7-1.9 2.1-4.2 3.9-6.6 5.4-1 .5-1.8 1.2-2.8.9 2.7-1.5 7-4.1 8.9-6.4.9-1.2-.9-1.7-1.7-1.9 1-.6 2.1-.9 3.2-.9 7.7-.5 15 3.9 19.3 7.4 1.8 2.1 4 3.7 4.6 7-2.4-4.5-6.2-8-10.8-10.2-4-1.9-8.7-4.2-14-3.2l.3.6c3.6.5 6.9 2.1 9.5 4.5 1 .4 2.1 1.5 2.8 2.9zm-.3-2.7c.1-.3.6-.2.9-.3 0-.3.1-.6-.2-.6-.3.2-1 .5-.7.9zm1.9-.1c.3 0 .4-.1.3-.4-.3 0-.5.2-.3.4zm-.5 4.5c-.2-.4-.4-1.4-.9-1.2.5.2.6 1.3.9 1.2zM197.9 95.8c.9-.4 1.1-1.4 1.8-2 .3.2.1 1.2 0 1.6.4 0 .4-.5.5-.9.4.1.1.8.2 1.2.2-.3.4-.8.4-1.2.2 0 .3 0 .3-.1 1 .3.4 1 .3 1.9.5-.8.6-1.7.4-2.6-.3-.7-1.6-.2-2-.7 0-.2 0-.4.1-.6.7-.1.7.4 1.2.5.4-.4.7-1.3 1.3-1.2.1.4 0 .5.1 1 2.8.8 1-2.5 1.1-4.3.2-.1.1-.4.5-.3-.5-.5-.6.2-.9.4-.2 0-.2-.2-.2-.4.2-.3.7-.4.7-1 .6 0 .5.3 1.1.1 0 .3.2.3.1.6.7.2 1.5.2 2.1-.1.4.2.7.5.9.9.2-.1.2-.4.3-.5.7.1 1.4-.2 1.9-.6.3-1.3.9-2.2 1.2-3.5.2-.1.4-.3.7-.2.3.6-.4.8-.5 1.2-.7 1.8-.4 3.9-2.6 4.1-.3 0-.6-.2-.9-.1-.4.1-.8.5-1.2.5-.9-.1-1.7-.4-2.5-.9-.2 0 0 .5-.1.7.4 0 .4-.4 1-.2.1.4-.2.6-.2 1 .5 0 .5-.5 1.1-.4.3.6-.4 1-.2 1.8.6.2.9-.4 1.3-.1-.9.7-1.1 1.8-1.2 3 0 .4.4.3.4.6.3-.5-.1-1.5.6-1.5.8.3.4 1.8.6 2.7-.4.3-1.5 0-1.5.7H205c-.3.4-.3 1.1-.7 1.4-.5-.2 0-1.1 0-1.4-.7.1.1 1.9-1.1 1.6-.2-.6-.2-1.2.2-1.7-.2-.2-.8.2-1-.2 0 .7.4.9.5 1.4-.1.6-1.3 1-1.4.1-.7.8-1.7.3-2.8.3-.2-.5-.1-1.1.3-1.4-.1-.3-.7 0-.9 0 .1.7-.3.8-.3 1.3-.9-.2-.2-.9 0-1.3-.6-.1-.8-.4-1.3-.4 0-.3-.2-.3-.1-.6-.1-.3-.2.3-.5.2.4-.8.9-1.6.2-2.5-.8-.7-2.8-.2-2.8-1.7.4 0 .5-.3 1-.2-.2-.3-.5-.4-.5-.7.6-1 3.1-.3 2.2 1 .1.2.5.1.6.2.5 1.1 1 2.8-.2 3.4.8-.1 1-.8 1.2-1.5 1.2.1.7 1.4.3 1.6zm5.4-2.2c.3 0 .7.1.6-.3-.2.1-.5.1-.6.3zm-.6.8c.3 0 .3-.4.4-.5-.3 0-.4.1-.4.5zm.5 1.7c.3 0 .3-.2.6-.1 0-.1 0-.3-.1-.3 0 .2-.5 0-.5.4zm-1.8.7c.1.3.3.7.5 1-.1-.6.3-1.4.1-1.5-.1.2-.2.5-.6.5zm-1.4.3c0 .3-.1.7.2.7 0-.5.6-.4.4-1-.3 0-.2.4-.6.3z" transform="translate(-123.807 -34.121)"/></svg>