<?xml version="1.0" encoding="utf-8"?>
<!-- Generator: Adobe Illustrator 25.0.1, SVG Export Plug-In . SVG Version: 6.00 Build 0)  -->
<svg version="1.0" id="katman_1" xmlns="http://www.w3.org/2000/svg" xmlns:xlink="http://www.w3.org/1999/xlink" x="0px" y="0px"
	 viewBox="0 0 157.2 106.8" style="enable-background:new 0 0 157.2 106.8;" xml:space="preserve">
<style type="text/css">
	.st0{fill-rule:evenodd;clip-rule:evenodd;fill:#1D1D1B;}
</style>
<g transform="translate(-123.807 -34.121)">
	<path class="st0" d="M194.5,45.8c0,1.5,1.6,2.1,1.4,3.4c0,0.6-0.5,1-1.1,1c-1.3,0-1-2.2-1.8-2.7c-0.8,0.5-2.1,0.5-2.9,1.1
		c0.4,0.7,0.7,1.4,0.9,2.1c1,0,0.4-1.5,1-1.9c2.4-0.4,1.5,2.5,2.4,3.6c0.4-0.2,0.4-0.8,0.6-1.2c1.5-0.2,1.8,1.2,2.1,2.6
		s0.6,2.2-0.7,2.7c-1.2,0.4-3.5,0.6-5,1c-0.7,0.3-1.6,0.3-2.4,0.1c-0.4-0.2-0.5-0.6-0.5-1.2c0.4-0.5,1.2-0.6,1.6-1.1
		c-0.7-2-1.1-4.4-1.8-6.4c-0.5,0.1-1.1,0-1.6-0.2c-0.1-0.4-0.2-0.8-0.1-1.2C189,46.4,191.7,45.8,194.5,45.8L194.5,45.8z M191.8,54.8
		c1,0.2,2-0.4,3-0.5c0-0.6-0.1-1-0.4-1.2c0.1,0.9-0.6,1.1-1.5,1c-0.5-0.4-0.6-1.1-1.3-1.3C191.4,53.6,191.9,54,191.8,54.8
		L191.8,54.8z"/>
	<path class="st0" d="M220.1,47.8c0,1-0.9,2-0.9,3.2c-1.1,0.5-1.8-1.2-1.1-1.9c-2.5-3.4-5.6,1.7-4.6,5.4c0.5,0.7,2.5,1,2.8-0.1
		c-0.6-0.4-0.8-1.1-0.5-1.7c1.6-0.5,4.3-0.3,4.3,1.7c-0.4,0.4-1,0.4-1.5,0.1c-0.9,0.8-0.3,3.1-1.8,3.3c-1.1-0.7-2.7,0-3.9-0.7
		c-1.3-1.1-1.9-2.6-1.8-4.3c0.4-4,3.9-9.1,7.9-5.1C219.4,47.6,219.8,47.6,220.1,47.8z"/>
	<path class="st0" d="M183.2,48.5c0.3,0.4,0.4,0.8,0.5,1.2c-0.2,0.4-0.8,0.4-1.2,0.6c0.3,3.5,1.8,6.3,1.6,10
		c-1.2,0.8-2.1-0.7-2.8-1.5c-1.5-1.8-3.3-4.1-4.5-5.7c-0.6,0.2-1.2,0.1-1.8-0.1c-0.4-2.2,2.7-2.8,4.1-2.5c0.3-0.2,0.2-0.8,0.4-1.1
		C180.8,49,182,48.7,183.2,48.5L183.2,48.5z M180.9,53.5c-0.1-0.5,0.3-0.5,0.2-1c-0.4-1.6-1.1-1.2-2.4-0.6c0.6,1.6,1.9,2.6,2.9,3.7
		C181.5,54.9,181.3,54.1,180.9,53.5z"/>
	<path class="st0" d="M228.7,53.5c-0.5-1-2-0.9-2.9-1.4c-0.3,0.7-1,1.5-0.7,2.4c0.9-0.4,2.6-2,2.7,0c0.1,1-1.8,3.3-2.2,4.1
		c-0.6,0-1.2,0-1.5-0.3c0.1-0.6,0.2-1.3-0.1-1.7c-0.5,0.5-0.8,1.1-1.1,1.7c0.9,0.4,1.8,0.8,2.7,1.2c0.6-0.7,0.8-2.3,2-2.1
		c1.5,0.3,0.3,3.1-0.3,4.1c-0.9,1.5-1.6,0.8-3.1,0.1c-0.9-0.5-1.9-0.7-3.1-1.3c-1.1-0.5-3.3-1.4-2.1-2.9c0.6-0.1,1.3-0.1,1.9,0
		c1.4-1.6,2.1-4,3.2-5.9c-1.7-0.7-1.3-2.7,1.1-1.9c0.5,0.2,1,0.7,2,1.2c1.5,0.6,3.4,1.3,3.6,2.2c0,1-0.3,1.9-0.7,2.8
		c-0.3,0.7-1.9,1.6-2.1,0.1C227.8,55.2,228.4,54.4,228.7,53.5z"/>
	<path class="st0" d="M209.1,52.6c0.1,0.2,0.3,0.3,0.2,0.6c-0.2,0.2-0.5,0.3-0.7,0.2C208.3,53.1,208.5,52.5,209.1,52.6z"/>
	<path class="st0" d="M208.5,53.8h0.5c0.1,0.2,0.1,0.4,0,0.6h-0.5C208.4,54.3,208.4,54,208.5,53.8z"/>
	<path class="st0" d="M179.1,60.2c0.8,2-4.8,5-3.2,1.4c-0.2-0.3-0.4-0.5-0.6-0.6c-0.7,0.3-1.3,0.7-1.8,1.3c0.1,0.9,1.5,0.5,1.9,1
		c-0.1,1.1-1.5,3.4-3.2,3c-1.6-0.4-0.1-1.6,0-2.4c0.1-0.9-0.8-2.4-1.2-3.5c-0.5-1.4-0.9-2.7-1.3-3.4c-0.4-0.8-1.3-2.5,0.5-2.5
		c0.3,0.1,0.6,0.2,0.9,0.4c1,0.9,2.1,2.2,3.2,3.1s2.1,1.4,3.1,2.2C178.2,60.3,178.6,59.7,179.1,60.2L179.1,60.2z M172.9,59.8
		c0.1-0.2,0.6-0.1,0.6-0.4c-0.4-0.1-0.8-0.8-1.2-0.6C172.7,59,172.5,59.7,172.9,59.8z"/>
	<path class="st0" d="M236.6,56.8c0.3,1.1-0.7,1.6-1.4,2c0,0.3,0,0.6-0.2,0.7c-1.4,1.2-2,3.1-3.3,4.3c0.4,0.7,1.2,0.9,2.4,0.9
		c0.4,0,0.3-0.5,0.7-0.7c0.1-0.1,0.5,0,0.6-0.1c0.5-0.5,1-1,1.4-1.5c0.5-0.5,0.8-1.1,1.1-1.7c0-0.5-0.5-0.8-0.3-1.4
		c0.4-1,1.6-0.1,1.7,0.5c0,2.1-1,4.1-2.6,5.6c-1,0.9-3.1,2.1-4.5,1.8c-0.8-0.2-2-1.6-2.7-2.2c-0.5-0.5-2.2-1.8-2.2-2.6
		c0-1.6,2.2-0.7,2.7,0.1c1.3-0.6,2.1-2.7,3.4-4c0.3-0.3,0.8-0.4,1.1-0.6C235,57.4,235.2,56.2,236.6,56.8z"/>
	<path class="st0" d="M237.1,58.5c0,0.3-0.2,0.3-0.5,0.3v-0.3C236.7,58.4,236.9,58.4,237.1,58.5z"/>
	<path class="st0" d="M199.4,69.2c-1.3,1.1-3.4,1.3-4.9,2.2C195.9,70.3,197.6,69.5,199.4,69.2z"/>
	<path class="st0" d="M201.2,70c-0.7,0.1-1.4,1.2-2,0.6C199.5,70,200.5,70.1,201.2,70z"/>
	<path class="st0" d="M199.2,70.8c-0.1,0.3-0.4,0.5-0.7,0.5C198.4,70.9,198.8,70.5,199.2,70.8z"/>
	<path class="st0" d="M193.2,72.1c-0.5,1.1-1.9,2-2.6,3.4c-0.4,0.9-0.4,1.9-0.9,2.8C189.8,75.8,191,73.5,193.2,72.1z"/>
	<path class="st0" d="M176.8,75.7c-2.4,2.1-4.3,4.7-5.4,7.7c-0.1-1.1,0.9-2,0.4-2.9c0.4,0.1,0.4-0.2,0.5-0.4c-0.4-1-1.6-0.8-2.5-0.3
		c0.1,0.4,0.8-0.1,1,0.4c-0.4-0.1-1.2,0.3-1.1-0.3c-0.5,0.2-0.9,0.5-1.4,0.7c-0.1,0.4,0.2,0.5,0,0.6c-0.7,0-1.3,0.5-1.4,1.2
		c-0.8,0.1-1.1,0.7-1.4,1.3c-0.3-0.9,1.4-1.7,1.6-2.8c1.8-1.9,3.9-3.3,6.3-4.3C174.8,76.1,175.7,75.4,176.8,75.7z"/>
	<path class="st0" d="M192.3,76.7c0.3,0.1,0.4,0.4,0.3,0.6c1,0.5,1.5,2.7,0.4,3.5c-0.8,0.1-1.5,0.9-1.5,1.7
		c-0.1-0.3-0.5-0.3-0.7-0.4c-0.2-1.7-0.1-3.3,0.4-4.9C191.9,77.4,192,76.9,192.3,76.7z"/>
	<path class="st0" d="M238.1,77.1c-0.2,0.4-0.3,0.2-0.1,0.6c-0.5,0.3-0.9,0.6-1.3,1.1c-0.2-0.2-0.5-0.4-0.9-0.5
		C236.2,77.3,237.2,77.6,238.1,77.1z"/>
	<path class="st0" d="M195.4,78.5c0.3-0.1,0.3,0.2,0.5,0.1c-0.2,0.1-0.1,0.4-0.4,0.4C195.6,78.8,195.3,78.8,195.4,78.5z"/>
	<path class="st0" d="M162.8,79.2c-0.2,0.2-0.8,0-1.2,0.1C161.7,78.8,162.4,79.3,162.8,79.2z"/>
	<path class="st0" d="M240.6,79.1c0,0.3,0,0.5-0.3,0.4C240.1,79.3,240.3,79.1,240.6,79.1z"/>
	<path class="st0" d="M193.3,81.6c0.3,0,0.3,0.2,0.5,0.2v0.7C193.2,82.8,193,82,193.3,81.6z"/>
	<path class="st0" d="M165.2,82.7c0.3,0.2-0.2,0.6-0.2,0.9C164.7,83.3,165.2,83,165.2,82.7z"/>
	<path class="st0" d="M192.8,82.8c1.7,0.8-0.3,4,1.5,5c0.7-0.1,1.5,0,2.1,0.3c0.6,0.1,0.7-0.3,1.3-0.2c0.3,0.6-0.9,1.2-1.5,0.6
		c-1,0.2-2,0-2.8-0.6C192.6,86.6,193,84.1,192.8,82.8z"/>
	<path class="st0" d="M183.6,83.4c0.4-0.1,0.4,0.4,0.5,0.6C183.8,84,183.7,83.7,183.6,83.4z"/>
	<path class="st0" d="M171.4,83.5c0.3,0.4-0.3,0.8-0.2,1.3C171,84.3,171.1,83.8,171.4,83.5z"/>
	<path class="st0" d="M183.6,84.2c0.2,0,0.3,0.1,0.4,0.1c0,0.2-0.2,0.2-0.4,0.2V84.2z"/>
	<path class="st0" d="M185.8,85c0,0.3-0.3,0.6-0.5,0.3C185.3,85.1,185.5,85,185.8,85z"/>
	<path class="st0" d="M216.4,85.6c0.3,0,0.5,0,0.4,0.3C216.5,86,216.4,85.9,216.4,85.6z"/>
	<path class="st0" d="M217.6,85.7h0.3c-0.1,0.9,0.4,1.9-0.3,2.1C217.7,87,217.3,86.4,217.6,85.7z"/>
	<path class="st0" d="M211.7,85.8c0.4-0.1,0.3,0.3,0.6,0.2c0,0.6,0,1.2-0.4,1.4c-0.3,1.5,1.3,1.2,1.7,2c0.2-0.2,0.5-0.4,0.9-0.4
		c0.3,0.5-0.4,0.5-0.2,1.2c-1.3,0-3.2,3.1-4.4,0.7c-0.1,0-0.1,0.3-0.1,0.4c-0.6-0.3-1.2-0.9-1.5-1.5c0.8-0.2,1.4-1.1,2.4-0.9v0.5
		c0.2-0.2,0.6-0.3,0.9-0.2c0.1,0.3-0.2,0.3,0,0.5h0.4c0.2-0.1,0.2-0.3,0.2-0.5c0-0.2-0.6,0-0.6-0.2c-0.1-0.7-0.3-1-0.1-1.7h0.4
		C211.3,87.1,211.5,86.3,211.7,85.8z"/>
	<path class="st0" d="M186.5,85.9c0.3,0.8,0.3,1.7,0,2.5C186.2,87.6,186.2,86.7,186.5,85.9z"/>
	<path class="st0" d="M187.6,86.1c0.1,0.3-0.4,0.8-0.5,1.2C186.8,86.9,187,86,187.6,86.1z"/>
	<path class="st0" d="M200.4,86.2c0.5,0.7-0.8,1.2-1.2,1.7c0,0.3,0.5,0.1,0.4,0.5c-0.4,0.7-1.2,0.9-2.4,0.9c0.3-0.5,1.1-0.5,1.5-0.9
		c0-0.2-0.6,0-0.6-0.2C198.4,87,200.1,87.3,200.4,86.2z"/>
	<path class="st0" d="M195.2,86.9c0-0.2-0.1-0.2-0.1-0.4c0.2,0.2,0.5,0.1,0.9,0.1c0,0.3-0.3,0.3-0.5,0.3c0.3,0.1,0.4,0.5,0.6,0.6
		c-0.6,0.4-1.4,0.1-1.8-0.5c-0.1-0.1-0.1-0.3-0.2-0.5C194.6,86.2,195,86.7,195.2,86.9z"/>
	<path class="st0" d="M233.2,86.8c0.3-0.4,0.4,0.3,0.3,0.6C233.2,87.4,233.4,86.9,233.2,86.8z"/>
	<path class="st0" d="M190.8,86.9c0.3,0,0.3,0.2,0.3,0.5c-0.2,0-0.4-0.2-0.4-0.4C190.8,87,190.8,86.9,190.8,86.9z"/>
	<path class="st0" d="M197.3,87c0.2,0,0.3,0.1,0.4,0.1c-0.1,0.2-0.2,0.3-0.4,0.3V87z"/>
	<path class="st0" d="M205.5,87c0.2,0.2,0.6,0.2,0.5,0.5C205.7,87.8,205.5,87.4,205.5,87z"/>
	<path class="st0" d="M209.3,87.4c-0.2,0.2-0.6,0.2-0.5-0.2C209,87,209.4,87.1,209.3,87.4z"/>
	<path class="st0" d="M178.6,87.2c0.2,1,0.3,2.1,0.2,3.1C178.6,89.3,178.6,88.2,178.6,87.2z"/>
	<path class="st0" d="M197,87.9c-0.2,0.2-0.8,0.1-0.7-0.3C196.5,87.3,197,87.5,197,87.9z"/>
	<path class="st0" d="M208,87.5c-0.1,0.3-0.4,0.2-0.6,0.1C207.4,87.3,207.9,87.4,208,87.5z"/>
	<path class="st0" d="M192.2,88.9c0.8,1.9-1.9,1.9-1.4,0.3C191.3,89.1,191.7,89,192.2,88.9z"/>
	<path class="st0" d="M189.3,89.2c0.4,0.4,0.7,0.8,0.9,1.3C189.8,90.2,189.3,90,189.3,89.2z"/>
	<path class="st0" d="M194.7,89.4V90c-0.6,0.2-1.6,0.2-1.8,0.9c-0.2-0.1,0-0.6-0.1-0.9C193.4,89.8,193.9,89,194.7,89.4z"/>
	<path class="st0" d="M212.8,92c0.1,0,0.2,0.1,0.2,0.2c0,0.3-0.3,0.4-0.5,0.4C212.4,92.4,212.7,92.3,212.8,92z"/>
	<path class="st0" d="M204,93.3c0.1,0.4-0.3,0.3-0.6,0.3C203.4,93.4,203.7,93.4,204,93.3z"/>
	<path class="st0" d="M209.8,93.5c0-0.2,0.8-0.2,0.6,0.1C210.2,93.7,210,93.6,209.8,93.5z"/>
	<path class="st0" d="M203.1,93.8c-0.2,0.2-0.1,0.6-0.4,0.5C202.7,94,202.8,93.9,203.1,93.8z"/>
	<path class="st0" d="M193.6,94.4h0.3c0,1.1-0.1,1.5-0.2,2.6C193.4,96.1,193.3,95.2,193.6,94.4z"/>
	<path class="st0" d="M192.5,94.7c0.7,1.6,1,3.5,0.6,5.2c-0.7,0.4-1.3-1.2-0.4-1.4C192.4,97.3,192.4,96,192.5,94.7z"/>
	<path class="st0" d="M203.8,95.7c0.1,0,0.1,0.2,0.1,0.3c-0.3-0.1-0.4,0.1-0.6,0.1C203.2,95.7,203.7,95.9,203.8,95.7z"/>
	<path class="st0" d="M202.1,96.3c0.2,0.1-0.3,0.9-0.1,1.5c-0.2-0.3-0.4-0.6-0.5-1C201.8,96.8,201.9,96.5,202.1,96.3z"/>
	<path class="st0" d="M207.2,96.6c0,0.6-0.1,1.1-0.7,1.1C206.4,97,206.5,96.6,207.2,96.6z"/>
	<path class="st0" d="M200.7,96.8c0.1,0.6-0.4,0.5-0.4,1c-0.3,0-0.2-0.4-0.2-0.7C200.4,97.2,200.3,96.8,200.7,96.8z"/>
	<path class="st0" d="M206.1,97.1c0,0.4,0.1,0.9-0.1,1.1c-0.3,0-0.3,0.2-0.6,0.1C205.1,97.6,205.4,96.7,206.1,97.1z"/>
	<path class="st0" d="M194,97.8c0.6,0.5,1.9,2,0.9,2.9C194,100.4,194,99.1,194,97.8z"/>
	<path class="st0" d="M169.8,106.3c-0.8-0.8,0.2-1.6,0.5-2.1c0-1.1-1-2.9-2.2-2.7c-1.1,0.2-0.5,2-0.3,2.5c0.4,0.8,0.7,1.6,1,2.5
		c0,2-1.7,3.6-3.7,3.6c-0.3,0-0.7-0.1-1-0.2c-1.5-0.5-2-2-2.5-3.6c-0.2-0.3-0.8-0.2-1-0.5c-0.2-0.6-0.1-1.2,0.1-1.8
		c0.6-0.4,1-0.3,1.6-0.6c0.6-0.4,0.6-1.1,1.4-1c1.8,0.2-0.1,2.9-0.1,3.3c-0.3,2.5,3.2,2.8,3.2,0.7c0-0.7-0.9-1.2-1.3-2
		c-1.1-2.7,0.6-6,3.9-4.9c1.5,0.8,2.5,2.3,2.7,4C173.6,104.6,171.4,106.5,169.8,106.3z"/>
	<path class="st0" d="M196.2,99.5c0.3,0,0.2,0.5-0.1,0.5C196,99.9,196.1,99.7,196.2,99.5z"/>
	<path class="st0" d="M197.7,99.7c0.1,0.5-0.5,0.6-0.7,0.4C196.8,99.7,197.4,99.5,197.7,99.7z"/>
	<path class="st0" d="M193.3,101.8c-0.6-0.1-1.3-0.9-0.7-1.6C193.4,100.1,193.8,101.2,193.3,101.8z"/>
	<path class="st0" d="M198.7,100.3c0,0.4,0.1,0.9-0.1,1.1c-0.4,0-0.7-0.1-1-0.3c0.2-0.3,0-0.5,0.1-0.7
		C198.2,100.3,198.4,100.1,198.7,100.3z"/>
	<path class="st0" d="M204.1,100.6c-0.1,0.3-0.3,0.6-0.5,0.9c-0.3-0.1-0.5-0.3-0.4-0.6C203.4,100.7,203.8,100.4,204.1,100.6z"/>
	<path class="st0" d="M204.4,100.6h0.5c0,0.4-0.1,0.8-0.4,0.9C204.4,101.3,204.4,100.9,204.4,100.6z"/>
	<path class="st0" d="M237.6,113.1c0.3-0.7,0.6-1.4,1.1-2c-1.4-1.6-3.5-2.5-4.7-4.2c-0.4-0.1-0.6-0.4-1.1-0.4
		c-0.1-0.6-0.7-0.8-0.5-1.7c2.1-0.2,3,1.4,4.3,2.4c1.5,0.3,2.3,1.3,3.4,2c0.8-0.6,1.4-2.8-0.1-3c0-0.3,0-0.6-0.1-0.7
		c-1.2-0.6-2.1-2-3.6-2c-0.6,0-1,0.5-1.6,0c-0.2-0.4-0.2-0.8,0-1.2c3.2-1.8,7.4,1.8,8.5,4.1c0.2,0.7,0.2,1.5,0.1,2.2
		c-0.7,1-1.4,1.9-2.2,2.8C240,112.4,238.9,115.1,237.6,113.1z"/>
	<path class="st0" d="M208.3,103.1c-0.2,0.8-1,1.2-1.8,1.4C206.7,103.6,207.4,103.1,208.3,103.1z"/>
	<path class="st0" d="M198.8,104.3c0.2,0.5,0.2,1.1,0,1.6C198,105.8,197.8,104.4,198.8,104.3z"/>
	<path class="st0" d="M179.5,110.9c-0.8,1.2-1.1,3.4-3.1,3c-0.7-1.2,0.5-2.3,1.1-3c-0.6-1-2.1-1.2-2.7-2.2c-0.6,0.6-1.1,1.2-1.6,1.8
		c0.6,1,1.5-0.2,2.4-0.2c1.8,1.2-1.8,4.8-2.7,4.8c-1.2,0-1.4-1.5-0.6-2.6c-0.8-0.3-1.2,0.6-1.7,1c0.2,0.5,1.6,2.2,2.2,2.2
		c1,0,1.1-2,2.6-1.3c1.2,1,0.1,1.9-0.5,2.7c-0.6,0.7-1.1,2.1-2.5,1.6c-0.4-0.2-1.3-1.5-1.8-2c-0.8-0.8-1.9-1.9-2.5-2.4
		c-0.9-0.7-2.8-1.8-1.2-3c0.7-0.1,0.9,0.6,1.5,0.6c0.8,0,1.1-0.8,1.8-1.6c0.3-0.4,1-0.6,1.3-1c0.5-0.7,1-1.4,1.6-2
		c-0.3-0.6-1-1.2-0.5-2.1c1.2-0.5,2.4,1,3.3,1.8C177.2,108.2,178.4,109.4,179.5,110.9z"/>
	<path class="st0" d="M228.4,109.4c0.3,1-0.5,1.7-0.4,2.5c0.5,0.9,1.2,1.7,1.9,2.5c0.8,0.8,1.8,1.4,2.4,2c0.6-0.1,1.1-0.5,1.4-1.1
		c-0.3-0.6-0.7-1.2-1.2-1.7c0-0.9,0.1-1.5,0.6-1.6c1.1-0.3,1.6,1.3,2.1,1.9c0.4,0.4,1.4,0.8,1.4,1.4c0.1,1.1-2.7,2.6-3.6,3.5
		c-0.7,0.7-1.4,2.5-2.5,2.6c-0.7,0-1.2-0.5-1.3-1.1c0,0,0,0,0-0.1c0-0.6,0.6-1.2,0.6-1.7c0.1-0.8-0.3-1.2-1.1-1.7
		c-0.5-1.6-1.6-2.6-2.7-3.6c-0.8,0.3-2.3,1.2-2.5-0.2C223.6,111.7,227.1,109.3,228.4,109.4z"/>
	<path class="st0" d="M184.2,113.6c0.4-0.1,0.8-0.1,1.2-0.2c1,0.6,2,1.4,2.9,2.1c0.1,0.8-0.2,1.3-0.7,1.5c-0.6,0-0.5-0.6-1.1-0.5
		c-1.2,1-2.3,2.1-3.2,3.3c-1,1.2-2.4,3.3-4.4,3c-0.9-1.5,0.2-3.4,0.6-5.5c0.3-1.4,0.7-2.8,1.3-4.1c-0.5-0.5-1.8-1.9-0.4-2.4
		C181.8,110.5,183.7,112.9,184.2,113.6L184.2,113.6z M181.4,118.5c0.5-0.1,1-1.1,1.3-1.8c0.7-0.3,1.4-0.6,1.6-1.4
		c-0.4-0.5-1.2-0.6-1.7-1.1C182.2,115.6,181.8,117,181.4,118.5L181.4,118.5z"/>
	<path class="st0" d="M220.8,113.6c3-0.3,5.8,3.4,6,6.4c0.1,1.1,0,2.2-0.3,3.3c-0.5,1-2.7,2-4,1.8c-0.9-0.3-1.8-0.8-2.5-1.5
		c-0.9-1-1.7-2.1-2.1-3.3C217,117.4,218,113.9,220.8,113.6L220.8,113.6z M224.5,119c-0.5-1.1-1.3-2.1-2.2-2.9
		c-1.7-0.8-2.4,0.5-2.5,1.8c-0.1,1.8,1.4,3.2,2,4c1,0,1.8,0.9,2.6,0C224.7,121,224.8,120,224.5,119L224.5,119z"/>
	<path class="st0" d="M196.8,118.4c-0.5,1.6,0.4,4.6-2,4.3c-0.8-0.7-0.2-2.2,0-3.2c-0.7-0.7-2.1-0.2-3-0.7c-0.4,0.8-0.7,1.6-0.7,2.5
		c1.6,0.2,0.9-1.4,2.2-1.3c1.9,0.2,0,3.1,0,4.5c0.2-0.1,1-1.1,1.8-0.6c0.7,1.3,0.1,4.9-1.1,5.1c-0.9,0.2-2.4-0.6-3.7-1
		c-1.9-0.5-3.4-0.9-4.4-1.8c0-0.6-0.1-1.2,0.2-1.5c0.7-0.1,0.9,0.3,1.5,0.2c1.1-0.7,0.5-3.1,1.5-4c-0.1-1.2,0.4-1.7,0.6-2.5
		c-0.7-0.5-2.2-1.2-1.2-2.5c1.1-0.5,2.1,0.4,3.1,0.6C193.5,117.1,195.6,117.1,196.8,118.4L196.8,118.4z M190,125.3
		c1,0.2,1.9,0.6,2.9,0.7c0.2-0.2,0.5-0.9,0.2-1.3c-0.2,0.5-0.9,0.8-1.4,0.5c-0.1,0-0.1-0.1-0.2-0.1c-0.2-0.8-0.2-1.7-0.9-1.9
		C190.5,124,189.9,124.4,190,125.3L190,125.3z"/>
	<path class="st0" d="M214.4,118.5c-1.2-0.1-2.1,0.1-2.6,0.7c0.2,0.7,0.3,1.4,0.4,2.1c0.6-0.4,0.2-0.6,0.2-1.4
		c0.4-0.3,0.7-0.8,1.6-0.6c0.7,0.8,2.5,5.4,0.6,5.8c-1.1,0.2-1.3-0.7-1.6-1.5c-0.1,0.9,0.1,1.8,0.5,2.6c0.8,0,1.7-0.1,2,0.3
		c-0.2,2.1-3.1,2.5-5.7,2.7c-1.9-1,0.1-2.1,1.2-2.6c-0.8-2-1-4.7-1.7-6.7c-1-0.2-1.2,0.3-1.8,0.4c-1.3-1.6-0.3-2,1.5-2.6
		c1.9-0.6,4.6-1.4,6.7-1.2c0.8,0.5,2.3,4.6,0.4,4.7C215,121.3,215,119.1,214.4,118.5z"/>
	<path class="st0" d="M201.3,118.8c0.2,2.9,1.9,4.3,2.4,6.9c0.1-1,0-2.1-0.3-3.1c0.5-0.6-0.2-1.4,0.3-2.1c-0.4-0.6-1.6-0.5-1.6-1.3
		c-0.1-1.7,6.2-1.7,4.5,0.7c-0.2,0.2-0.8,0.1-1.1,0.2c-0.1,2.2-0.1,4.5,0.1,6.7c0.6,0.5,0.6,1.5,1.6,1.5c0.1,0.4-0.2,0.9-0.6,1
		c-0.3,0-0.5-0.1-0.4-0.5c-0.5,1-1.5,1.4-3,1.1c-0.2-0.2-0.5-0.3-0.5-0.6c-0.7,1.3-5,1-5.9-0.1c-0.1-1.2,1.2-1,1.9-1.4v-7.3
		c-0.4-0.6-1.3-0.7-1.7-1.3C197.2,117.3,200.3,118.1,201.3,118.8L201.3,118.8z M200.7,124.9c0.1,0.9-0.6,2.5,0.3,2.8
		c1-1,0.1-3.3-0.4-4.3C200.3,123.8,200.6,124.5,200.7,124.9L200.7,124.9z"/>
	<path class="st0" d="M207.2,125.8c0,0.3,0.2,0.3,0.1,0.6c-0.1,0.2-0.4,0.3-0.6,0.1c-0.2-0.1-0.3-0.4-0.1-0.6
		C206.7,125.8,207,125.7,207.2,125.8z"/>
	<path class="st0" d="M206.5,127.1h0.3c0.1,0.1,0.1,0.5,0.1,0.7h-0.5C206.4,127.6,206.4,127.3,206.5,127.1z"/>
	<path class="st0" d="M171.3,86.7c-0.3-0.4-0.1,0.6-0.4,0.4c-0.1-0.7,0.2-1.1,0.1-1.7c-0.2,0.4-0.3,0.8-0.3,1.3
		c-1.3-1.3-3-2-4.8-1.8c-0.5,0.1-0.8,0.4-1.3,0.3c-1-1.1-1.9-2.4-3.6-2.8c-2.2-0.1-3.6,1.2-5.2,1.9c0.5-1.7,2.4-2.1,3.1-3.6
		c0.7-0.1,1-0.8,1.6-0.7c0.1,0,0.1-0.3,0.1-0.4c1.1,0.3,1.1-1.2,2.1-1c0.6-1.3,2-0.9,3.2-0.4c-0.3-0.3-0.7-0.6-0.9-1.1
		c0.5-0.4,1.2,0.1,1.5-0.5c0.3,0.2,0.2,0.8,0.9,0.6c-0.1,0.3-0.1,0.6-0.4,0.5c0.4,0.4,0.6,1,1.4,0.6c-0.1,0.4-0.5,0.5-1,0.6
		c-0.4,1-0.9,2-1.6,2.9c2.5-3.8,7.2-6.3,13-7.2c0.2-0.3,0.3-0.7,0.3-1.1c-2-0.4-4.1-0.4-6.1,0c-8.2,1.9-15.3,5.7-18.6,12.3
		c-0.3-0.3,0.4-0.7,0.2-1.3c0.8-1.1,1.5-2.2,2.1-3.3c4.2-4.7,11.1-8.2,19.1-8.7c1.8-0.2,3.6,0.1,5.2,0.9c-0.2,0.6-1.4,0.6-1.4,1.4
		c0,0.6,2,2.8,2.7,3.3c1.1,1,2.3,1.9,3.5,2.7c0.8,0.5,2.1,0.8,2.7,1.5c-0.7,0.4-2-0.5-2.6-1c-2.9-1.3-4.8-3.6-7-5.7
		c-0.4,3.7-0.5,7.5-0.3,11.2c0.4-0.2,0.2-1.1,0.2-1.6c0.5,0,0,0.4,0.1,0.7c0.4,0.1,0.3-0.4,0.3-0.7c-0.1-0.4-0.3,0-0.5-0.2
		c0-0.8,0.1-1.5,0.2-2.2c0.5-0.1-0.2,0.4,0.3,0.3c0.4-0.3-0.2-0.5-0.3-0.6c0.2-1.2,1.6-1.8,2.8-1.7c0,0.2-0.4,0-0.5,0.1
		c0,0.5,0.7,0.2,0.6,0.6c-0.6,0.1-0.2,0.5-0.6,0.6c0.4,0.2,0.8,0.4,1.2,0.5c0,0.2-0.4,0.1-0.3,0.3c0.2,0.3,0.7,0.2,1.2,0.1
		c0.2,0.1,0.1,0.6,0.4,0.5c0,0.3-0.1,0.7-0.3,1c0.5-0.1,0.1,0.1,0.3,0.3c0.5,0.1,0.5-0.2,0.6-0.4c0.3,0.2,0.4,0.6,0.4,1
		c0.1,0.3,0.4-0.2,0.5,0.1c0.5,0-0.2,0.3-0.2,0.5c0.3,0,0.6,0,1,0c0.2,0.5,0.2,1,0.2,1.5c-0.5,0.1-0.6-0.3-1-0.3
		c-1.8,0.4-3.5,1.2-4.8,2.5c-0.5,0.6-0.7,1.5-1.5,1.8v-0.6c-0.3,0-0.1,0.4-0.4,0.3c-0.8-5.1-1-10.3-0.5-15.5
		c-0.4,0.1-0.8,0.2-1.1,0.4c-2,1.6-4.4,5.9-5.4,9.1c0.1,0.2,0.3-0.4,0.7-0.2c0-0.2-0.4-0.1-0.3-0.4c0.6-1.3,0.7-2.3,2-2.8
		c0.1-0.3-0.3-0.2-0.2-0.6c0.3-0.4,1.1-0.3,1-0.9c0.4-0.1,0.2,0.5,0.6,0.3c0.4-0.1-0.1-0.4,0.2-0.6c0.3,0,0.8-0.3,1.1,0
		c-0.2,0.2-0.6,0.1-0.6,0.4c0.3,0.4,0.5-0.2,0.9-0.1c0.8,3.3,0.8,6.5,1.2,10.5c-1.3-2.1-3.2-5.9-6.7-4.1
		C171.3,86.8,171.2,86.7,171.3,86.7L171.3,86.7z M161.6,79.3c0.4-0.1,1,0.1,1.2-0.1C162.4,79.3,161.7,78.8,161.6,79.3z M173.6,76.6
		c-2.4,0.9-4.6,2.4-6.3,4.3c-0.2,1.1-1.9,1.9-1.6,2.8c0.3-0.6,0.6-1.2,1.4-1.3c0.1-0.7,0.7-1.1,1.4-1.2c0.2-0.2-0.1-0.3,0-0.6
		c0.4-0.3,0.9-0.5,1.4-0.7c-0.1,0.6,0.7,0.2,1.1,0.3c-0.2-0.5-0.8,0-1-0.4c0.8-0.5,2.1-0.7,2.5,0.3c-0.1,0.2-0.1,0.5-0.5,0.4
		c0.5,0.9-0.5,1.7-0.4,2.9c1.1-3,2.9-5.7,5.4-7.7C175.7,75.4,174.8,76.1,173.6,76.6L173.6,76.6z M165,83.6c0-0.3,0.5-0.6,0.2-0.9
		C165.2,83,164.7,83.3,165,83.6z M171.2,84.7c-0.1-0.5,0.5-0.9,0.2-1.3C171.1,83.8,171,84.3,171.2,84.7z M178.8,90.3
		c0.1-1,0-2.1-0.2-3.1C178.6,88.3,178.6,89.3,178.8,90.3L178.8,90.3z"/>
	<path class="st0" d="M239,82.8c0.5-0.2,0.7,0.7,0.9,1.2C239.5,84.1,239.4,83,239,82.8z"/>
	<path class="st0" d="M217.3,84.7c0.1,0.2,0.5,0.5,0.2,0.7C217.2,85.2,217.4,85.2,217.3,84.7z"/>
	<path class="st0" d="M210,91.7c0.4,0.1,0.5,0.5,0.6,0.9C210.5,92.6,209.9,92.2,210,91.7z"/>
	<path class="st0" d="M195.6,103.5c0,0.6,0.8,0.5,0.9,1.1c-1.4-0.4-1.9-2.2-3.5-2c0.1-0.3,0.6-0.3,1.1-0.3c0.2,0.4,0.6,0.6,0.9,0.9
		c0-0.4-0.7-1.3-0.6-1.8c0.1-0.2,0.5-0.1,0.6-0.2c0.2,0.6,0.6,1.1,1.1,1.5c0.1,0,0.1-0.9-0.2-1c0-0.3,0.2-0.4,0.3-0.6
		c0.3-0.1,0.4,0.6,0.6,0.2c0,0.3,0.2,1,0.6,1.2c0.3-0.2-0.3-0.6,0-1c1.1,0.3,2.3,0.4,3.4,0.5c-0.1-0.2-0.5-0.2-0.4-0.5
		c-0.4-0.1-0.2,0.5-0.6,0.4c-0.5-0.2-0.7-0.8-0.4-1.3c0,0,0,0,0,0c0.1,0,0.2,0,0.2-0.1c0.4,0.4,1.4,0.3,2,0.4c0,0.4-0.2,0.8-0.4,1.1
		c0.4,0,0.7-0.1,1.2,0.2c0.2-0.4-0.7-0.4-0.5-1.1c0.3-0.3,0.8-0.3,1.2-0.1v0.6c0.9,0.2,1.8,0.2,2.7-0.1c-0.3-0.1-0.4-0.4-0.3-0.9
		c0.2-0.1,0.4-0.2,0.6-0.1c0.2,0.2-0.1,0.4,0,0.7c0.7-0.1,1.3-1.2,2.5-1.2c0.1,0.1,0.1,0.5,0.1,0.7c1.1-1,1.1-3,1.7-4.4
		c0.5,0.3,0,1.2,0.1,1.8c1-1,0.1-3.9,1.7-4.3c0.1,1.4-0.7,2.8-0.9,4.4c0.5,0.3,0.6,2.2-0.6,2.1c-0.1-0.2-0.2-0.4-0.1-0.6
		c-0.3,0.5-0.5,1-0.6,1.6c0-0.1,1.1-0.1,1.1-0.6c0.5,0.2,0.7,0.7,0.6,1.1c0,0.1-0.1,0.3-0.2,0.4c-0.8-0.1-1,0.3-1.6,0.3
		c0.1-0.2,0.2-0.5,0.3-0.7c-0.3-0.1-0.3,0.2-0.6,0.1c0-0.3,0-0.6-0.1-0.9c-0.3,0.6-0.8,1.1-1.3,1.5c-1.4-0.1-2.4,0.9-3.6,1.3
		c0.8,0.5,1.6-0.6,2.6-0.5c0,0.6-0.7,0.4-0.7,0.9c-0.1,0.3,0.3,0.2,0.3,0.4c-1.1,1.1-2.7,2.5-4.7,1.6c-0.1-0.5,0.4-0.5,0.9-0.5
		c-0.5-0.9-1.5,0.6-2.2,0.4c-0.7-0.1-1-1-0.3-1.7c0.5,0,0.6,0.4,0.7,0.6c0.5-1,1.6-1.5,2.7-1.1c-0.5-0.3-1.2-0.3-1.6-0.6
		c-0.1-0.4,0.2-1.1-0.2-1.2c-0.5,0.2,0,0.6,0.1,0.9c-0.2,0.5-0.8,0.7-1.3,0.6c-0.2-0.6,0.2-1-0.2-1.5c-0.1,0.1-0.3,0.1-0.4,0.1
		c0.3,0.3,0.5,1.3,0,1.6c-0.6-0.2-0.6-1.2-0.7-1.9c-0.6-0.1-0.8,0.4-1.3,0.4c0.3,0.2,0.9,0.2,1.1,0.6c-0.4,0.7-1.1,0.2-1.8,0.1
		c-0.4,0.2-0.2,0.3-0.2,0.9C196.1,104.1,196,103.6,195.6,103.5z"/>
	<path class="st0" d="M205.6,51.8c0.2-1.4-0.1-3.1,0-4.3c-0.3-0.6-1.3-0.5-1.6-1.1c0.2-1.8,3.7-1.4,4.8-0.7c0.1,1.1-0.5,1.3-1.3,1.5
		c-0.5,2.1,0.2,4.2,0,6.3c0.1,0.6,0.8,0.6,0.7,1.4c0.1,0.2,0.7-0.2,1,0.1c0,0.5-0.5,0.6-0.9,0.7c-0.4,0.1-0.2-0.4-0.4-0.4
		c-0.5,0.4-0.6,1-1.4,1.1c-0.7,0-1.4-0.2-1.9-0.5c-1.9,0.7-3.9,0.7-5.8-0.1c0-0.3,0-0.7,0.1-1c0.5-0.1,1-0.3,1.5-0.5
		c0.1-2.3,0.3-4.5,0.2-7c-0.4-0.6-1.3-0.4-1.4-1.2c-0.1-1.4,3-1.4,3.7-0.4C203.6,48,204.9,49.6,205.6,51.8L205.6,51.8z M202.7,54.1
		h0.4c1-0.8,0.2-2.6-0.4-3.7C202.5,51.6,202.5,52.9,202.7,54.1L202.7,54.1z"/>
	<path class="st0" d="M202.9,84.1c-0.3-0.1-0.4,0.1-0.6,0.1c0.2,0.2,0.7,0.1,1,0.3c0,0.4,0.3,0.6,0.2,1.1c1,0.6-0.5,1.4-0.3,2.1
		c-0.2,0,0-0.4-0.1-0.5c-0.5,0-0.3,0.6-0.7,0.6c-0.5,0-0.4-0.4-0.7-0.5c-0.5,0.2-0.1,0.5-0.1,1c-0.2,0.4-0.6,0.6-0.7,1.1
		c-0.1,0.4,0.3,0.3,0.3,0.5c-0.4,0.5-0.8,1.1-1.1,1.7c-0.1-2.3,1.7-4.3,1.5-6.6c0-0.4,0.6-0.1,0.6-0.3c0.1-0.4-0.6-0.1-0.9-0.2
		c-0.1-0.2-0.3-0.3-0.3-0.6c-1.3-0.2-1.6-1.2-2.7-1.6c0.1,0.9,1.8,1,2.2,2c-0.6,0.4-1.1-0.3-1.5-0.5c-0.8,0.1-1.6-0.3-1.9-1.1
		c-0.5,0.6-2.3,1.1-2.9,0.3c0.4-0.4,0.6-0.9,0.6-1.5c0-0.2-0.3-0.2-0.5-0.2c0.8-2-1.3-3.2-0.6-4.9c0.5,0.3,0.5,1,1.1,1.2
		c0.5,1.7,0.8,3.6,2.1,4.4c0-1.1-0.6-1.9-0.4-2.6c0.9,0.6,1.7,1.2,2.5,1.9c-0.2-0.8-0.9-1.1-0.7-2.4c-0.4,0-0.4,0.4-0.9,0.3
		c0.1-0.7-0.4-1-0.5-1.7c-0.1-0.9-0.1-1.9,0.1-2.8c0.4-1.8,2.3-2.3,3.5-3.2c0.3,0,0.5,0.2,0.9,0.1c-0.4-0.6,0.9-0.2,1-1
		c1,0.1,2,0,3.4,0.1c-0.7-0.5-2.2-0.3-2.2-1.5c0.3,0,0.7,0.1,1,0.3c0.3-0.1-0.1-0.3,0-0.5c2.6-0.3,5.2,0.5,7.2,2.2
		c2.2,1.9,3.9,4.3,3.9,7.3c0.1,1.1-0.2,2.2-0.9,3.1c-0.1-0.8,0.5-1.7,0.3-2.6c-0.6,0.6-0.7,1.7-1.2,2.4c-0.5,0-0.4,0.1-0.9,0
		c-0.1-1.1-0.7-1.8-0.6-3.1c-1.2,0.9,0.8,2.6-0.5,3.4c0.7,1.4-0.2,2-0.7,2.9c-0.7-0.7-2.2-0.7-3-1.3c-1.2,0.2-1.8,0.9-3.1,1
		c-0.2,0.2,0.1,0.5-0.2,0.7C203.6,85.5,203.4,84.5,202.9,84.1L202.9,84.1z M206.4,69.7c-0.2-0.1-0.9-0.2-1.1,0
		C205.5,69.8,206.3,69.9,206.4,69.7z M207,71.2c0-0.3-0.7-0.4-0.9-0.2C206.4,71.1,206.8,71,207,71.2z M209,71.3
		c0.4,0.4,0.5,0.4,1.2,0.3c-0.1-0.4-0.5-0.6-0.9-0.5C209.2,71.2,209.1,71.2,209,71.3z M211,72.5c-0.1-0.4-0.4-0.6-1-0.5
		C210.1,72.5,210.8,72.3,211,72.5z M213.4,74.7c-0.2,0-0.6-0.3-0.7,0l0.5,0.2L213.4,74.7z M207.8,81.4c0.6-0.1,1.1-0.3,1.6-0.6
		c-0.2-0.6,0.2-0.6,0.1-1.3C209.1,80.2,207.9,80.8,207.8,81.4L207.8,81.4z M200.6,82.4c0.8,0,1,1,1.8,0.6c-0.8-0.4-1.4-1-2-1.6
		c-0.1-0.4-0.1-0.9-0.6-0.9C199.4,81.3,200.9,81.6,200.6,82.4z M205.6,81.9c-0.1-0.3,0.3-0.2,0.2-0.5c-0.5-0.1-0.4,0.5-0.9,0.4
		c-0.1,0.2,0.5,0.3,0.1,0.5c-0.5-0.3-1.5,0.1-1.7,0.6c0.8,0.1,1.1-0.6,1.8-0.2c0.2-0.5,0.8-0.7,1.3-1
		C206.1,81.6,205.8,82.2,205.6,81.9L205.6,81.9z"/>
	<path class="st0" d="M239.1,78.6c0.3,0,0.2,0.4,0.2,0.6c-0.3,0.1-0.7,0.1-0.9,0.3C238.1,79.2,238.8,78.9,239.1,78.6z"/>
	<path class="st0" d="M233.7,79.7c-0.1,0.7-0.6,0.8-1.2,1C232.2,79.8,233,79.3,233.7,79.7z"/>
	<path class="st0" d="M238.7,82.3c0.4-1.4-1.5-1.7-1.7-3c-0.1-0.4,0.7-0.5,0.4-0.7c0.4-0.1,0.9-0.2,1-0.6c0.4,0.3,0.8-0.2,1.2,0.1
		c0.1,0.3-0.1,0.4-0.2,0.5c0.4,0,0.8,0,1.2-0.1c0.4,0.6,2.4,0.6,2.4,1.7c1.4,0,1.9,0.9,2.2,1.9h-0.5c0.1,0.4,0.5,0,1,0.1
		c0.9,1,2.2,1.4,2.8,2.7c-0.9,0-1.7-1-2.6-1.2c-1.9-0.5-3.9,0.1-5.2,1.5c-0.1-0.3-0.3-0.4-0.3-0.7c-0.6,0.5,0.6,0.9,0.3,1.7
		c-1.4-1.9-2.2-4.3-4-5.9c-0.8-0.7-1.8-1-2.4-1.9c-2.2-0.8-3.5-2.5-6.1-2.8c2.6,2.7,4.4,6.1,5.4,9.7c0.2,0,0-0.5,0.1-0.7
		c0.4-0.1,0.4,0,0.6-0.1c0-0.2-0.5,0-0.7-0.1c-0.2-0.5-0.2-1.1,0-1.6c-2-1.5,2.2-3.6,2.6-1.4c-0.3,0-0.8-0.1-0.9,0.2
		c0.5,0.1,1.1,0,1.6-0.1c0.1,0.4,0.4,0.5,0.5,0.9c-0.1,0.7-0.9,0.6-1.3,1c0.9-0.1,1.9,0,2.8,0.2c0.3,0.9,1.1,1.7,0.9,2.5
		c-2.3-1.3-4.3,0.6-5.9,1.3c0.1-0.4-0.2-0.5-0.1-1c-0.4-0.2,0,0.5-0.4,0.3c-0.5-3-2.1-5.1-3.1-7.6c-1-1.1-1.6-2.6-3.2-3.1
		c-0.6,3.7,0.2,9.3-0.7,13.4c0.7-0.2,0-1.5,0.7-1.3c-0.2-1.9,0.2-3.8,1.1-5.6c0.3,0,0.6,0,0.9,0.1c-0.3-0.7-0.8-0.3-1.2,0
		c-0.1-0.6,0.3-0.8,0.3-1.3c0.8-0.1,1.7-1,2.1,0c-0.4,0.4-0.9,0.6-1.5,0.6c0.5,0.4,1.1-0.1,1.5-0.2c0.1,0.4,0.9,0.1,0.9,0.6
		c-0.2,0.5-0.7,0.6-1.2,0.9c0.3,0.4,0.6-0.2,1-0.1c0.3,0.4,0.8,0.8,1.3,1c0,0.3-0.3,0.4-0.4,0.2c-0.1,0.4,0.4,0.3,0.1,0.6
		c-0.4,0.2-0.1-0.4-0.3-0.3c-0.3,0.1,0.1,0.4,0.1,0.5c0.3,0,0.8,0.1,0.7-0.3c0.7,0.8,0.1,1.3,0.5,2.2c-3.6-0.7-5.2,2.1-6.6,4.3
		c-0.2,0,0-0.5-0.2-0.5c-0.3,0.2-0.1,0.9-0.5,1c-0.1-0.5,0.2-0.7,0.1-1.3c-0.3,0.3-0.3,0.7-0.2,1.3c-2-1.3-3.6-4.4-7.1-4.3
		c0.3-0.5,0.2-0.7,0.3-1.3c0.3-0.1,0.1,0.3,0.4,0.2c0.4-0.3-0.7-0.4-0.3-0.7c0.8-0.1,1-0.3,1.6-0.4c-0.1-0.4-0.7-0.2-0.6-0.7
		c0.8,0,0.8-0.8,1.4-1c-0.1-0.3-0.7,0-0.7-0.2c0.1-0.3,0.3-0.4,0.6-0.4c0.1,0,0.2,0.1,0.3,0.2v-0.4c0.6-0.1,1,0.3,1.4,0.1
		c-0.4-0.3-0.8-0.4-1.3-0.5c0.6-0.5,1.3-0.7,2-0.7c0.2-0.1-0.4-0.5-0.3-0.9c0.8-0.4,1.7-0.2,2.2,0.4c0,1.4,0.8,3.8,0.1,5.6
		c0.7,0.6,0.2,2.1,0.2,3.1c0.7-4.5,1.1-9.6,0.2-13.7c-1.9,2.1-4.2,3.9-6.6,5.4c-1,0.5-1.8,1.2-2.8,0.9c2.7-1.5,7-4.1,8.9-6.4
		c0.9-1.2-0.9-1.7-1.7-1.9c1-0.6,2.1-0.9,3.2-0.9c7.7-0.5,15,3.9,19.3,7.4c1.8,2.1,4,3.7,4.6,7c-2.4-4.5-6.2-8-10.8-10.2
		c-4-1.9-8.7-4.2-14-3.2c0.1,0.2,0.2,0.4,0.3,0.6c3.6,0.5,6.9,2.1,9.5,4.5C236.9,79.8,238,80.9,238.7,82.3L238.7,82.3z M238.4,79.6
		c0.1-0.3,0.6-0.2,0.9-0.3c0-0.3,0.1-0.6-0.2-0.6C238.8,78.9,238.1,79.2,238.4,79.6z M240.3,79.5c0.3,0,0.4-0.1,0.3-0.4
		C240.3,79.1,240.1,79.3,240.3,79.5z M239.8,84c-0.2-0.4-0.4-1.4-0.9-1.2C239.4,83,239.5,84.1,239.8,84L239.8,84z"/>
	<path class="st0" d="M197.9,95.8c0.9-0.4,1.1-1.4,1.8-2c0.3,0.2,0.1,1.2,0,1.6c0.4,0,0.4-0.5,0.5-0.9c0.4,0.1,0.1,0.8,0.2,1.2
		c0.2-0.3,0.4-0.8,0.4-1.2c0.2,0,0.3,0,0.3-0.1c1,0.3,0.4,1,0.3,1.9c0.5-0.8,0.6-1.7,0.4-2.6c-0.3-0.7-1.6-0.2-2-0.7
		c0-0.2,0-0.4,0.1-0.6c0.7-0.1,0.7,0.4,1.2,0.5c0.4-0.4,0.7-1.3,1.3-1.2c0.1,0.4,0,0.5,0.1,1c2.8,0.8,1-2.5,1.1-4.3
		c0.2-0.1,0.1-0.4,0.5-0.3c-0.5-0.5-0.6,0.2-0.9,0.4c-0.2,0-0.2-0.2-0.2-0.4c0.2-0.3,0.7-0.4,0.7-1c0.6,0,0.5,0.3,1.1,0.1
		c0,0.3,0.2,0.3,0.1,0.6c0.7,0.2,1.5,0.2,2.1-0.1c0.4,0.2,0.7,0.5,0.9,0.9c0.2-0.1,0.2-0.4,0.3-0.5c0.7,0.1,1.4-0.2,1.9-0.6
		c0.3-1.3,0.9-2.2,1.2-3.5c0.2-0.1,0.4-0.3,0.7-0.2c0.3,0.6-0.4,0.8-0.5,1.2c-0.7,1.8-0.4,3.9-2.6,4.1c-0.3,0-0.6-0.2-0.9-0.1
		c-0.4,0.1-0.8,0.5-1.2,0.5c-0.9-0.1-1.7-0.4-2.5-0.9c-0.2,0,0,0.5-0.1,0.7c0.4,0,0.4-0.4,1-0.2c0.1,0.4-0.2,0.6-0.2,1
		c0.5,0,0.5-0.5,1.1-0.4c0.3,0.6-0.4,1-0.2,1.8c0.6,0.2,0.9-0.4,1.3-0.1c-0.9,0.7-1.1,1.8-1.2,3c0,0.4,0.4,0.3,0.4,0.6
		c0.3-0.5-0.1-1.5,0.6-1.5c0.8,0.3,0.4,1.8,0.6,2.7c-0.4,0.3-1.5,0-1.5,0.7h-1.1c-0.3,0.4-0.3,1.1-0.7,1.4c-0.5-0.2,0-1.1,0-1.4
		c-0.7,0.1,0.1,1.9-1.1,1.6c-0.2-0.6-0.2-1.2,0.2-1.7c-0.2-0.2-0.8,0.2-1-0.2c0,0.7,0.4,0.9,0.5,1.4c-0.1,0.6-1.3,1-1.4,0.1
		c-0.7,0.8-1.7,0.3-2.8,0.3c-0.2-0.5-0.1-1.1,0.3-1.4c-0.1-0.3-0.7,0-0.9,0c0.1,0.7-0.3,0.8-0.3,1.3c-0.9-0.2-0.2-0.9,0-1.3
		c-0.6-0.1-0.8-0.4-1.3-0.4c0-0.3-0.2-0.3-0.1-0.6c-0.1-0.3-0.2,0.3-0.5,0.2c0.4-0.8,0.9-1.6,0.2-2.5c-0.8-0.7-2.8-0.2-2.8-1.7
		c0.4,0,0.5-0.3,1-0.2c-0.2-0.3-0.5-0.4-0.5-0.7c0.6-1,3.1-0.3,2.2,1c0.1,0.2,0.5,0.1,0.6,0.2c0.5,1.1,1,2.8-0.2,3.4
		c0.8-0.1,1-0.8,1.2-1.5C198.8,94.3,198.3,95.6,197.9,95.8L197.9,95.8z M203.3,93.6c0.3,0,0.7,0.1,0.6-0.3
		C203.7,93.4,203.4,93.4,203.3,93.6z M202.7,94.4c0.3,0,0.3-0.4,0.4-0.5C202.8,93.9,202.7,94,202.7,94.4z M203.2,96.1
		c0.3,0,0.3-0.2,0.6-0.1c0-0.1,0-0.3-0.1-0.3C203.7,95.9,203.2,95.7,203.2,96.1z M201.4,96.8c0.1,0.3,0.3,0.7,0.5,1
		c-0.1-0.6,0.3-1.4,0.1-1.5C201.9,96.5,201.8,96.8,201.4,96.8L201.4,96.8z M200,97.1c0,0.3-0.1,0.7,0.2,0.7c0-0.5,0.6-0.4,0.4-1
		C200.3,96.8,200.4,97.2,200,97.1L200,97.1z"/>
</g>
</svg>
