<?xml version="1.0" encoding="UTF-8" standalone="no"?>
<!-- Created with Inkscape (http://www.inkscape.org/) -->

<svg
   xmlns:dc="http://purl.org/dc/elements/1.1/"
   xmlns:cc="http://creativecommons.org/ns#"
   xmlns:rdf="http://www.w3.org/1999/02/22-rdf-syntax-ns#"
   xmlns:svg="http://www.w3.org/2000/svg"
   xmlns="http://www.w3.org/2000/svg"
   xmlns:sodipodi="http://sodipodi.sourceforge.net/DTD/sodipodi-0.dtd"
   xmlns:inkscape="http://www.inkscape.org/namespaces/inkscape"
   id="svg2"
   version="1.1"
   inkscape:version="0.48.2 r9819"
   width="1734"
   height="230"
   sodipodi:docname="Avenged Sevenfold - Logo.svg"
   inkscape:export-filename="C:\Users\York\Pictures\Yorks Bilder\Musik\Logos\Avenged Sevenfold - Logo.png"
   inkscape:export-xdpi="105.35208"
   inkscape:export-ydpi="105.35208">
  <metadata
     id="metadata8">
    <rdf:RDF>
      <cc:Work
         rdf:about="">
        <dc:format>image/svg+xml</dc:format>
        <dc:type
           rdf:resource="http://purl.org/dc/dcmitype/StillImage" />
        <dc:title></dc:title>
      </cc:Work>
    </rdf:RDF>
  </metadata>
  <defs
     id="defs6" />
  <sodipodi:namedview
     pagecolor="#ffffff"
     bordercolor="#666666"
     borderopacity="1"
     objecttolerance="10"
     gridtolerance="10"
     guidetolerance="10"
     inkscape:pageopacity="0"
     inkscape:pageshadow="2"
     inkscape:window-width="1680"
     inkscape:window-height="988"
     id="namedview4"
     showgrid="false"
     inkscape:zoom="0.8650519"
     inkscape:cx="867"
     inkscape:cy="115"
     inkscape:window-x="-8"
     inkscape:window-y="-8"
     inkscape:window-maximized="1"
     inkscape:current-layer="svg2" />
  <path
     style="fill:#000000"
     d="m 1078.8978,212.86093 c -0.8772,-2.86271 -2.5463,-10.15493 -3.709,-16.20493 -1.1627,-6.05 -3.1691,-13.25 -4.4586,-16 -1.2895,-2.75 -2.6101,-7.44773 -2.9347,-10.43941 -0.3246,-2.99167 -1.77,-7.85089 -3.212,-10.79827 -1.9387,-3.96259 -2.8337,-7.8316 -3.4349,-14.84918 -0.5151,-6.01188 -1.4288,-10.42996 -2.4929,-12.05395 -0.9239,-1.41 -3.1714,-8.95459 -4.9946,-16.76575 -1.8231,-7.81116 -4.0326,-15.92012 -4.9099,-18.0199 -0.8774,-2.09978 -1.5952,-5.05773 -1.5952,-6.57322 0,-3.69574 -1.7102,-4.89524 -8.5713,-6.01193 -6.755,-1.0994 -7.0614,-1.33557 -7.9403,-6.12155 -0.661,-3.59993 -0.6229,-3.65024 4.1722,-5.5 5.91,-2.27985 28.2052,-2.64146 35.0894,-0.56912 4.1672,1.25444 4.25,1.36561 4.25,5.70564 0,5.1402 -1.6167,6.49664 -7.7431,6.49664 -2.1311,0 -4.6279,0.5625 -5.5485,1.25 -1.5343,1.14581 -1.5506,1.7736 -0.1954,7.53148 0.8132,3.45482 2.309,7.95482 3.3241,10 1.2512,2.52078 1.7013,5.09351 1.3975,7.98733 -0.2826,2.69077 0.044,4.86258 0.8848,5.87502 0.7331,0.88342 1.2078,2.79947 1.0549,4.25791 -0.153,1.45843 1.1506,5.70492 2.8969,9.43663 2.5575,5.46541 3.0772,7.65278 2.672,11.24743 -0.3582,3.17775 0.036,5.51904 1.368,8.13227 1.029,2.01837 2.147,5.14147 2.4845,6.94022 0.6884,3.6695 2.9901,6.15701 4.3946,4.74933 1.0023,-1.00448 3.145,-11.48369 3.1506,-15.40762 0.01,-4.7106 3.9658,-20.49824 6.3949,-25.5 1.4042,-2.89145 3.3426,-10.27137 4.5966,-17.5 3.0553,-17.61214 3.1123,-17.01267 -1.8824,-19.78817 -4.4926,-2.49646 -5.0598,-4.12224 -2.8376,-8.13327 1.3306,-2.40182 1.4616,-2.42046 16.1652,-2.30105 l 14.8237,0.12038 4.3286,3.05105 c 2.3807,1.67809 5.2154,3.05106 6.2993,3.05106 2.7106,0 2.4678,1.63485 -0.6752,4.54775 -1.9692,1.825 -3.7635,2.45225 -7.0147,2.45225 -3.8476,0 -4.6021,0.38376 -6.3253,3.21743 -1.0762,1.76958 -2.2427,5.25708 -2.5922,7.75 -0.3496,2.49291 -1.4875,6.02079 -2.5287,7.83973 -1.0412,1.81894 -1.8931,4.86671 -1.8931,6.77282 0,1.90611 -1.3447,6.71789 -2.9882,10.69284 -1.6436,3.97495 -4.0942,12.53473 -5.446,19.02174 -1.3518,6.487 -3.3352,13.237 -4.4075,15 -1.0724,1.76299 -2.273,6.07926 -2.6681,9.5917 -0.4404,3.91613 -2.0125,9.13778 -4.0645,13.5 -4.0358,8.57976 -8.2844,22.98459 -9.1122,30.89477 -0.3327,3.17957 -0.9135,5.97179 -1.2908,6.20493 -0.3772,0.23315 -1.4036,-1.91832 -2.2809,-4.78103 z M 422.71655,204.906 c -2.12295,-5.0875 -6.59512,-14.65 -9.93815,-21.25 -3.34302,-6.6 -6.14358,-13.14946 -6.22346,-14.55435 -0.0799,-1.40489 -0.87731,-3.97004 -1.77208,-5.70034 -0.89477,-1.73029 -1.62686,-4.3704 -1.62686,-5.86691 0,-1.4965 -0.73007,-3.52763 -1.62237,-4.51362 -0.89231,-0.98599 -2.02332,-3.94642 -2.51337,-6.57874 -0.4983,-2.67665 -2.88111,-8.01381 -5.4064,-12.10959 -2.60706,-4.22842 -5.11409,-9.88994 -5.93201,-13.39604 -0.92018,-3.94448 -2.42892,-7.16022 -4.30533,-9.17645 -1.5888,-1.70718 -3.42578,-4.99757 -4.08218,-7.31198 -0.65641,-2.31441 -1.63471,-4.48072 -2.174,-4.81402 -0.53929,-0.3333 -1.87689,1.48512 -2.97244,4.04093 -1.83469,4.28017 -1.98256,6.75159 -1.87359,31.31402 0.0651,14.6669 0.40516,28.01709 0.75573,29.66709 0.55204,2.59816 1.39363,3.23964 6.28308,4.78906 4.5065,1.42807 5.77461,2.30278 6.28467,4.33504 1.54655,6.16195 -0.26243,7.01685 -17.01699,8.04199 -10.72721,0.65635 -20.4248,-0.82301 -20.4248,-3.11579 0,-1.39178 5.25881,-8.97418 6.94824,-10.01831 0.59419,-0.36723 1.9375,-2.34786 2.98514,-4.4014 1.74918,-3.42868 1.88016,-5.77198 1.60329,-28.68215 -0.18962,-15.6903 -0.7385,-26.24726 -1.47909,-28.44844 -0.67824,-2.01588 -1.18195,-9.43646 -1.1879,-17.5 -0.006,-7.7 -0.22954,-15.125 -0.49746,-16.5 -0.28428,-1.45897 -2.17981,-3.67746 -4.55205,-5.32762 -5.43662,-3.7818 -3.95592,-5.11294 5.98102,-5.37686 4.23435,-0.11246 9.32687,-0.49225 11.31672,-0.84398 6.65374,-1.17613 15.88209,5.35737 15.88209,11.24421 0,2.08303 1.08822,4.82381 2.91843,7.35034 1.60513,2.21582 3.22284,5.92442 3.5949,8.24134 0.37206,2.31691 1.58861,5.78757 2.70344,7.71257 1.11482,1.925 2.39119,6.425 2.83637,10 0.57901,4.64967 2.11578,9.06199 5.3985,15.5 2.524,4.95 4.58243,10.125 4.5743,11.5 -0.0233,3.94847 1.71518,9.20217 6.0153,18.1777 l 3.98716,8.3223 -0.53912,-15.5 c -0.93147,-26.78049 -1.22909,-31.37877 -2.33008,-36 -1.55496,-6.52675 -1.3723,-19.72617 0.35162,-25.40893 2.12954,-7.01982 1.98688,-7.69497 -3.0803,-14.57825 -2.51321,-3.41396 -4.34671,-6.42996 -4.07445,-6.70222 0.27226,-0.27227 8.01644,-0.16562 17.20929,0.237 14.35238,0.62858 16.97712,0.99489 18.57445,2.59221 2.30156,2.30156 2.35544,5.01426 0.19023,9.57712 -1.69797,3.5782 -6.50077,7.27255 -9.46341,7.27933 -2.18242,0.005 -2.69882,2.28319 -3.85421,17.00374 -1.17634,14.98754 -3.46858,81.73723 -3.49419,101.75055 -0.01,7.8378 -0.0361,14.2503 -0.058,14.25 -0.0219,-3e-4 -1.77673,-4.16305 -3.89968,-9.25055 z M 1249.406,192.9894 c -4.1275,-1.5513 -5.2492,-2.43929 -5.2463,-4.15329 0.01,-3.30082 3.6018,-8.5148 7.4309,-10.77405 3.3534,-1.97852 3.4268,-2.1673 3.973,-10.21092 0.6538,-9.62874 0.6839,-15.29076 0.1605,-30.17873 -0.3444,-9.79738 -0.6119,-11.13354 -2.4771,-12.37197 -2.6041,-1.72908 -2.6204,-3.18641 -0.091,-8.14444 2.9687,-5.81908 2.6675,-9.48085 -0.9012,-10.95909 -6.1693,-2.55541 -9.5036,-8.78533 -7.9093,-14.77833 1.309,-4.92091 5.5302,-6.72148 15.8105,-6.74398 10.5857,-0.0232 14.7884,0.84856 19.4973,4.04416 2.2898,1.55384 4.423,2.27991 5.6006,1.90616 1.4385,-0.45654 1.9021,-0.11416 1.9021,1.40468 0,1.1046 -0.4573,2.29102 -1.0163,2.63648 -1.3272,0.82026 -0.2708,2.48992 1.5753,2.48992 1.0357,0 1.441,-1.23403 1.441,-4.38748 l 0,-4.38748 6.75,-2.79336 c 3.7125,-1.53634 7.6669,-3.60058 8.7875,-4.58721 1.9721,-1.73625 2.1228,-1.71476 4.694,0.66938 2.2733,2.10793 3.2918,2.37617 7.0606,1.85959 4.9822,-0.68289 13.9251,1.57118 17.3514,4.37345 3.9941,3.26665 3.7796,5.4921 -1.163,12.06724 -2.5136,3.34374 -5.4042,6.34426 -6.4236,6.66781 -1.249,0.39643 -2.0744,1.96287 -2.5307,4.80317 -0.6501,4.04648 -2.3187,40.70228 -2.9458,64.71489 -0.1652,6.325 -0.3634,12.03186 -0.4404,12.68191 -0.284,2.39746 -6.2044,5.55297 -10.3122,5.49628 -4.6101,-0.0636 -7.346,-2.06844 -8.1599,-5.97931 -0.3089,-1.48438 -2.3856,-5.10656 -4.6148,-8.04929 -2.2292,-2.94273 -4.0531,-6.3999 -4.0531,-7.68261 0,-1.45395 -0.7532,-2.57125 -2,-2.96698 -2.19,-0.69506 -2.7077,-3.09744 -0.8043,-3.73191 0.8317,-0.27723 0.5601,-1.44438 -0.8921,-3.83334 -1.1483,-1.88911 -2.3998,-4.90927 -2.781,-6.71145 -0.3813,-1.80219 -1.7427,-5.17719 -3.0253,-7.5 -1.2826,-2.32282 -2.844,-6.1633 -3.4697,-8.53442 -1.0196,-3.86411 -1.4161,-4.27885 -3.8241,-4 -2.8293,0.32767 -3.9156,2.60826 -2.6767,5.61953 0.8904,2.16395 1.6483,11.35337 1.8304,22.19159 0.1326,7.89089 0.2973,8.52202 2.2988,8.80723 1.3123,0.18701 2.3958,1.26283 2.7689,2.74938 0.3522,1.40334 2.4127,3.56308 4.844,5.07732 2.3271,1.44935 4.4036,2.78467 4.6145,2.9674 0.9723,0.84243 -9.6294,9.32348 -11.6991,9.35896 -1.2737,0.0218 -3.1599,0.49147 -4.1916,1.04363 -1.0317,0.55216 -5.8397,1.18364 -10.6843,1.40329 -7.0315,0.31881 -9.8675,0.001 -14.0584,-1.57381 z m 53.8477,-56.89279 c -0.2212,-0.79234 -0.3194,-2.22811 -0.2182,-3.19061 0.9032,-8.59065 -0.3842,-18.0263 -3.2063,-23.5 -2.8322,-5.49297 -3.5627,-5.96047 -6.4734,-4.14268 -1.2892,0.80512 -1.6648,2.03575 -1.376,4.50927 0.2185,1.87107 0.7975,3.64933 1.2867,3.9517 0.4892,0.30236 0.8895,2.04675 0.8895,3.87642 0,1.82967 0.6722,4.61561 1.4938,6.19098 0.8217,1.57537 1.4967,4.74467 1.5,7.04288 0,2.51294 0.6525,4.82488 1.6276,5.79995 1.9124,1.91243 5.0551,1.53479 4.4763,-0.53791 z M 18.156,188.81099 c 0,-0.73976 -0.9,-2.1595 -2,-3.15499 -1.240665,-1.12279 -2,-3.07997 -2,-5.15499 0,-2.96258 0.306889,-3.34501 2.684276,-3.34501 1.476351,0 4.553606,-0.90493 6.838343,-2.01095 7.109462,-3.44163 14.726494,-16.28726 14.966632,-25.24025 0.09654,-3.59932 0.901221,-5.84897 3.319093,-9.27923 2.513807,-3.56637 3.191656,-5.54474 3.191656,-9.31515 0,-9.54645 3.776249,-24.6541 8.544867,-34.18546 1.246805,-2.49208 2.587289,-6.76708 2.978854,-9.5 0.391565,-2.73293 1.550701,-6.35879 2.57586,-8.05747 1.226661,-2.03257 2.092041,-6.05622 2.53114,-11.76875 0.484623,-6.30478 1.173777,-9.26431 2.518248,-10.8145 1.018067,-1.17384 1.851031,-2.95674 1.851031,-3.962 0,-1.00526 3.33984,-8.34572 7.421868,-16.31214 4.190793,-8.17869 7.931754,-16.94051 8.593091,-20.12616 0.746844,-3.59753 1.518456,-5.29452 2.12953,-4.68345 0.527068,0.52707 2.231872,6.98768 3.788455,14.35691 1.556582,7.36923 4.069151,16.31709 5.583486,19.88413 2.5865,6.09254 2.71446,7.07882 2.11169,16.27659 -0.56734,8.65718 -0.40532,10.25428 1.39904,13.79111 1.79315,3.51488 1.9585,5.08873 1.36313,12.97537 l -0.67754,8.9753 3.14362,1.09588 c 1.97224,0.68752 3.14363,1.77419 3.14363,2.91626 0,4.6722 -2.54837,6.43799 -5.01023,3.47163 -1.65786,-1.9976 -3.98977,-0.16541 -3.98977,3.13477 0,1.6868 0.56392,2.37756 1.94098,2.37756 1.06754,0 2.2191,-0.45 2.55902,-1 1.4688,-2.37657 4.38546,-0.86805 6.41079,3.31572 2.4653,5.09262 2.64722,9.41301 0.60244,14.30686 -1.12905,2.7022 -1.22211,4.05286 -0.38678,5.61369 0.60499,1.13044 0.89249,4.21479 0.63889,6.85412 l -0.4611,4.79876 2.84788,-0.56957 c 2.42305,-0.48461 2.84788,-0.24931 2.84788,1.57738 0,1.18082 1.35716,5.14011 3.01591,8.7984 1.65875,3.6583 3.29313,8.38506 3.63194,10.5039 0.70744,4.42404 2.92979,6.2975 11.52331,9.71422 6.0229,2.39466 9.45051,5.27162 8.36778,7.02351 -0.36133,0.58465 -3.02374,1.06301 -5.91646,1.06301 -2.89271,0 -7.70365,0.72866 -10.69098,1.61923 -9.27037,2.76368 -29.281727,1.82478 -33.366776,-1.56551 -2.969189,-2.46421 -1.899651,-5.77313 2.746052,-8.4957 6.982354,-4.09193 8.962634,-6.80979 9.476484,-13.00616 0.24919,-3.00494 0.15293,-7.46501 -0.21391,-9.91127 l -0.66698,-4.44775 -11.907369,0.54861 c -9.66878,0.44547 -12.345416,0.26159 -14.23739,-0.97808 -2.114832,-1.38569 -3.321418,-1.32345 -13.064814,0.67397 -5.904137,1.21036 -11.071688,2.61961 -11.483446,3.13166 -0.411758,0.51205 -0.515709,5.86147 -0.231001,11.88759 l 0.51765,10.95659 8.290604,4.39202 c 7.200475,3.81452 8.120903,4.59666 7,5.94832 -2.252406,2.71609 -7.415106,4.20992 -16.484133,4.7697 -4.843559,0.29897 -10.718971,0.74494 -13.056471,0.99105 -3.978174,0.41885 -4.25,0.28879 -4.25,-2.0334 0,-3.32095 -3.310793,-3.31324 -8.214812,0.0191 -4.226331,2.87187 -4.785188,3.00676 -4.785188,1.15499 z m 60.938702,-53.54045 c 0.963063,-1.7995 1.216073,-1.81103 5.549379,-0.25278 4.094737,1.47246 4.807498,1.48272 7.262912,0.10453 4.463047,-2.50504 4.962557,-5.7878 2.288707,-15.04132 -1.286568,-4.45249 -2.302143,-9.39926 -2.256834,-10.99282 0.04531,-1.59357 -0.304471,-3.13649 -0.777288,-3.4287 -0.472817,-0.29222 -1.387332,-2.13015 -2.032255,-4.08428 -1.016552,-3.08018 -0.9387,-3.724 0.585045,-4.83819 1.646649,-1.20406 1.565544,-1.62606 -1.284447,-6.6831 -2.87736,-5.1056 -3.014381,-5.84364 -2.530532,-13.63032 0.460676,-7.41373 -2.13625,-27.20803 -3.403338,-25.94094 -0.218886,0.21888 -1.438167,4.17244 -2.709514,8.78568 -1.271347,4.61323 -2.998225,9.7377 -3.837507,11.3877 -0.839282,1.65 -1.842642,5.89418 -2.22969,9.43151 -0.432561,3.95328 -1.447326,7.37684 -2.633531,8.88485 -1.061395,1.34935 -1.929809,3.47322 -1.929809,4.71972 0,1.53711 -1.144731,2.94178 -3.557555,4.36538 l -3.557555,2.09901 2.724878,4.84743 2.724877,4.84744 -2.667323,6.66285 c -1.467027,3.66457 -2.667322,8.41828 -2.667322,10.5638 0,3.79776 0.165337,3.9805 6.25,6.90793 7.422154,3.57092 9.341645,3.80161 10.688702,1.28462 z M 1561.156,179.07164 c -9.075,-0.49849 -17.1521,-1.1537 -17.9491,-1.45602 -0.9644,-0.36578 0.452,-1.77434 4.2335,-4.21017 3.2569,-2.09787 6.3085,-4.97905 7.1485,-6.74926 1.1957,-2.51973 1.51,-10.26558 1.7063,-42.04448 0.251,-40.63605 0.1125,-42.20396 -4.0993,-46.41578 -3.0164,-3.01646 -9.3047,-2.79002 -11.8346,0.42616 -2.3092,2.93567 -3.2053,2.35937 -3.2053,-2.06133 0,-4.54639 1.9066,-6.00904 9.5732,-7.34411 20.6673,-3.59907 43.4446,-1.63299 46.465,4.01076 1.8465,3.45021 1.1073,3.92859 -6.0703,3.92859 -7.7303,0 -13.2413,1.77373 -14.8499,4.77953 -0.6465,1.20805 -1.1523,14.63941 -1.3305,35.33466 -0.2862,33.23673 -0.277,33.40911 2.0721,38.60432 1.2978,2.87019 3.0404,5.78351 3.8724,6.47405 1.098,0.91128 5.5234,1.17942 16.1404,0.97795 8.0452,-0.15266 15.3486,-0.4877 16.2298,-0.74452 2.8464,-0.82956 7.0573,-10.06857 7.633,-16.74745 0.9874,-11.45461 3.7465,-13.21736 3.8024,-2.42936 0.021,3.98795 0.2299,11.79473 0.4649,17.34839 0.65,15.36224 -1.2493,17.09321 -19.5462,17.81308 -5.476,0.21544 -13.1063,0.62113 -16.9563,0.90153 -3.85,0.28039 -14.425,0.10195 -23.5,-0.39654 z m -199.9041,-0.99777 c -10.6889,-0.81927 -12.3043,-1.49294 -13.5507,-5.65122 -0.9985,-3.33122 3.3126,-7.26665 7.9604,-7.26665 5.2934,0 7.0154,-4.39198 6.6495,-16.95947 -0.2721,-9.34073 -0.2509,-9.4372 1.6854,-7.68486 1.291,1.1683 2.1877,1.40764 2.6248,0.70052 1.0082,-1.63139 -0.3638,-4.93152 -2.533,-6.09244 -1.7301,-0.92588 -1.9323,-2.18617 -1.9323,-12.04109 0,-6.05384 0.6925,-14.3598 1.539,-18.45771 1.1256,-5.44934 1.2534,-7.98436 0.4758,-9.43732 -0.5848,-1.09262 -0.7913,-3.06978 -0.4591,-4.39368 0.8501,-3.3871 -2.7052,-6.40283 -8.452,-7.16927 -2.5321,-0.33769 -5.1067,-0.76842 -5.7214,-0.95718 -1.3178,-0.40463 -2.5345,-5.68933 -1.5464,-6.71643 0.3751,-0.38992 3.5718,-1.44927 7.1038,-2.35413 5.0967,-1.30571 7.1823,-1.41736 10.1071,-0.54107 2.0269,0.60727 7.008,1.11513 11.0692,1.12858 4.0612,0.0135 9.3541,0.47866 11.762,1.0338 3.4927,0.80524 5.2604,0.67242 8.7408,-0.65678 2.7429,-1.0475 5.7019,-1.44883 7.9694,-1.08087 2.2096,0.35857 5.0832,-0.006 7.4188,-0.94008 3.4337,-1.37389 4.1142,-1.36921 6.853,0.0471 1.6724,0.86483 3.6484,1.57241 4.3911,1.57241 0.7427,0 2.34,2.03704 3.5496,4.52676 1.7891,3.68246 2.1993,6.28147 2.1993,13.9349 0,10.80653 -0.9393,14.09793 -4.4841,15.71307 -3.0969,1.41103 -4.3529,0.3951 -2.728,-2.20664 1.8721,-2.99783 1.4775,-4.07281 -1.2444,-3.38966 -2.0938,0.52553 -2.5519,0.19619 -3.1028,-2.23094 -4.1203,-18.15305 -3.5959,-17.57611 -16.5101,-18.16344 -24.0336,-1.09304 -26.0936,-0.35231 -29.3871,10.56702 -0.3734,1.23808 -1.5485,2.71641 -2.6112,3.28518 -2.5414,1.36008 -2.4427,2.20371 0.6935,5.93087 2.1356,2.53798 2.5304,3.83159 2.115,6.92903 -0.4557,3.39706 -0.1957,3.99461 2.4064,5.53174 4.3941,2.59565 13.1924,3.23481 16.32,1.18557 2.0133,-1.31915 2.5328,-2.48192 2.5328,-5.66863 0,-2.20499 0.7014,-5.68211 1.5586,-7.72695 l 1.5587,-3.71788 4.5162,4.771 c 4.1207,4.35323 4.444,5.05375 3.6913,8 -0.4536,1.77595 -0.6891,8.26325 -0.5232,14.41621 0.2877,10.67251 0.1998,11.24167 -1.9099,12.37076 -1.9869,1.06337 -2.0408,1.27907 -0.5306,2.12425 2.3598,1.32058 1.0738,2.81778 -2.4201,2.81778 -2.3822,0 -2.9417,-0.42755 -2.9447,-2.25 -0.01,-2.97233 -3.2789,-8.23385 -6.3932,-10.27441 -3.1245,-2.04726 -12.6081,-3.39879 -15.3292,-2.18461 -4.1713,1.86129 -5.6654,10.51741 -2.7727,16.06381 0.9555,1.83204 1.2777,4.17576 0.8993,6.54201 -0.6689,4.18305 0.9575,11.31833 3.0588,13.41966 0.7736,0.77355 3.1827,1.6905 5.3537,2.03765 5.5401,0.88589 8.6644,3.60778 7.8528,6.84137 -0.5141,2.04809 -1.1094,2.44238 -3.1102,2.05989 -1.3805,-0.2639 -4.4005,0.4593 -6.8308,1.6358 -2.3959,1.15986 -5.0017,2.04478 -5.7905,1.96649 -0.7889,-0.0783 -6.1161,-0.50119 -11.8384,-0.93979 z M 254.26349,177.19206 c -12.4724,-0.71007 -13.52122,-0.92643 -15.26608,-3.14926 -1.3757,-1.75253 -1.71576,-3.31689 -1.27968,-5.8868 0.76354,-4.49969 1.36102,-5.04582 6.23555,-5.69964 l 4.03945,-0.5418 1.08164,-6.21119 c 1.35779,-7.79701 1.36004,-10.68506 0.0111,-14.23227 -0.80293,-2.11141 -0.65287,-5.57842 0.60032,-13.86968 1.99308,-13.18644 1.66355,-36.5888 -0.60472,-42.94542 -1.15435,-3.23498 -2.3834,-4.47814 -6.4262,-6.5 -5.83611,-2.91872 -7.04946,-6.28673 -3.44123,-9.55218 1.93525,-1.7514 3.83039,-1.9633 18.79334,-2.10134 9.15258,-0.0844 17.31785,0.17176 18.14504,0.56932 0.8272,0.39756 10.05399,0.41652 20.50399,0.0421 11.21624,-0.40185 19.84142,-0.29867 21.0539,0.25184 4.02857,1.82915 4.84116,4.7085 5.44395,19.29023 0.61286,14.82543 0.19006,16.5 -4.16593,16.5 -2.96213,0 -4.70374,-4.0613 -5.77156,-13.45885 -0.59058,-5.19745 -1.61454,-9.5239 -2.45236,-10.36172 -1.56956,-1.56956 -7.2508,-2.26694 -18.108,-2.22279 -7.2277,0.0294 -23.33953,1.66082 -25.8263,2.61508 -1.06434,0.40843 -1.58426,3.83324 -2.12182,13.97699 -0.92121,17.3833 0.31332,21.63474 5.94812,20.48389 0.55,-0.11233 2.93317,-0.33449 5.29593,-0.49368 3.31608,-0.22342 5.3686,-1.19862 8.99885,-4.27555 4.41844,-3.745 4.70299,-4.28184 4.70407,-8.87474 0.001,-4.76489 0.0771,-4.88863 3.00114,-4.88863 2.49167,0 3.32059,0.65657 4.89203,3.87491 1.77468,3.63455 1.81715,4.78211 0.68471,18.5 -0.66403,8.0438 -1.06544,16.42509 -0.89203,18.62509 0.28844,3.65936 0.094,4.0257 -2.2836,4.30184 -2.31229,0.26855 -3.01682,-0.5034 -6.38863,-7 -2.08436,-4.01601 -4.47211,-8.08934 -5.3061,-9.05184 -1.60248,-1.8494 -7.31207,-2.28909 -14.43496,-1.11163 -3.23892,0.53542 -3.78806,1.02644 -4.18148,3.739 -2.87809,19.84406 -2.88926,20.08118 -1.21687,25.83399 2.53033,8.70405 8.42346,12.53906 15.12693,9.84399 1.11188,-0.44703 2.84084,-0.36608 3.89353,0.18228 1.17137,0.61019 6.62313,0.71358 14.29461,0.2711 14.86037,-0.85711 14.96406,-0.94524 16.29557,-13.85088 1.11516,-10.80859 2.14834,-12.87472 6.23386,-12.46625 4.80416,0.48031 7.33321,4.64563 7.06202,11.63106 -0.12122,3.12254 -0.21606,8.27251 -0.21075,11.44439 0.01,5.6998 -2.11067,11.94492 -5.47439,16.12486 -1.33108,1.65408 -2.24982,1.78985 -7.30846,1.08004 -3.18229,-0.44652 -7.36099,-0.75955 -9.28599,-0.69562 -1.925,0.0639 -4.4,0.072 -5.5,0.018 -5.86362,-0.28807 -12.01222,-0.17605 -21,0.38261 -5.5,0.34187 -16.02663,0.27847 -23.39251,-0.14087 z m 229.86429,-1.50297 c -1.90948,-1.3568 -6.39678,-3.38095 -9.97178,-4.49811 -7.70114,-2.40655 -7.64479,-2.36968 -11.82132,-7.73631 -2.26407,-2.90922 -3.17877,-5.05976 -2.97416,-6.99256 0.21849,-2.06397 -0.26489,-3.03923 -1.85522,-3.74304 -1.40157,-0.62028 -2.35561,-2.1903 -2.73899,-4.50744 -1.12203,-6.78147 -0.82615,-8.05563 1.87064,-8.05563 1.81176,0 2.65004,-0.67372 3.10784,-2.49776 0.9167,-3.65243 -0.17546,-5.7682 -2.58309,-5.00405 -3.14966,0.99966 -3.64395,-2.32522 -3.04737,-20.49819 0.52667,-16.04317 0.63233,-16.69145 3.81628,-23.41487 4.68267,-9.8882 10.36263,-15.75908 22.62876,-23.38937 2.90613,-1.80779 18.11475,-1.01343 22.32991,1.16632 4.18185,2.16251 5.76553,2.06834 9.31205,-0.55372 l 2.96435,-2.19163 2.74516,2.04616 c 5.73312,4.27332 6.72187,7.53385 6.73405,22.20653 0.011,13.23278 -0.0137,13.37884 -2.41261,14.2913 -5.39798,2.05315 -7.54812,0.38782 -12.68456,-9.82448 -5.10099,-10.14183 -8.27268,-13.42922 -14.61752,-15.15075 -4.21633,-1.14401 -6.50425,-0.78312 -12.40002,1.95593 -6.39026,2.96877 -14.56806,17.30104 -15.99063,28.02488 -0.55548,4.18739 -1.33603,5.73109 -4.14487,8.19728 -3.40355,2.98836 -3.42764,3.06499 -1.46375,4.65525 1.62927,1.3193 2.06429,3.10399 2.3637,9.69712 0.27996,6.1648 0.81578,8.57619 2.26035,10.17242 1.28876,1.42407 2.09655,4.30855 2.52957,9.03268 0.72139,7.87025 2.26983,10.25771 8.57145,13.2158 2.2,1.03272 6.025,3.03474 8.5,4.44894 5.77124,3.29765 10.6183,2.86247 17.73832,-1.59257 5.96673,-3.73342 10.41174,-10.30368 10.56222,-15.61222 0.12199,-4.30361 2.08817,-3.86386 2.52162,0.56397 l 0.32215,3.29095 2.88491,-2.76392 c 2.44637,-2.34377 2.71667,-3.08376 1.77814,-4.86796 -1.37769,-2.61908 -2.76135,-3.56906 -5.22706,-3.58873 -1.05584,-0.008 -4.33472,-2.60281 -7.28641,-5.76531 -4.3674,-4.67933 -5.31337,-6.30861 -5.0803,-8.75 0.27699,-2.90129 0.46737,-3.0079 5.78641,-3.24015 3.025,-0.13208 9.55973,-0.68668 14.52163,-1.23245 15.9025,-1.74914 21.2736,1.69452 16.44097,10.54107 -2.21064,4.04677 -2.75266,4.43153 -6.24274,4.43153 -3.45117,0 -3.96955,0.35334 -5.34387,3.64254 -1.28417,3.07346 -1.35294,5.22166 -0.44017,13.75 0.66906,6.25124 0.73664,11.25203 0.17713,13.10746 -2.19045,7.26396 -3.4865,8.27789 -5.11295,4 -1.48679,-3.91055 -6.47734,-3.32706 -8.76495,1.02479 -1.4611,2.77954 -11.89659,5.13745 -16.15974,3.65131 -1.97152,-0.68728 -4.1546,-0.72695 -6.29072,-0.11432 -4.26194,1.22231 -3.81935,1.30891 -7.81281,-1.52869 z M 535.156,134.156 c 0,-0.55 -0.47656,-1 -1.05902,-1 -0.58246,0 -0.7809,0.45 -0.44098,1 0.33992,0.55 0.81648,1 1.05902,1 0.24254,0 0.44098,-0.45 0.44098,-1 z m 46.5,42.99604 c -1.1,-0.4869 -6.275,-0.65934 -11.5,-0.38321 -5.225,0.27614 -10.0212,0.13769 -10.65822,-0.30767 -0.63702,-0.44536 -1.47733,-2.5108 -1.86737,-4.58988 l -0.70916,-3.78013 5.91846,-2.6158 c 5.39471,-2.38431 6.28371,-3.24425 10.04597,-9.71757 2.27013,-3.90598 4.43343,-8.33928 4.80732,-9.85178 1.41887,-5.73967 4.26628,-2.20419 5.55527,6.89768 1.4714,10.38997 2.06168,10.9218 12.98263,11.69699 21.46922,1.52393 26.69174,0.78048 31.60891,-4.49966 2.90639,-3.12092 7.2942,-12.69357 7.30642,-15.94002 0.0118,-3.12729 2.81701,-5.90499 5.96351,-5.90499 1.99826,0 2.2213,0.37478 1.71868,2.88792 -0.42926,2.14628 -0.0462,3.36613 1.49147,4.75 1.88643,1.69772 2.0285,2.70062 1.60955,11.36208 -0.46568,9.62757 -3.03663,17.39629 -6.15279,18.59208 -1.4741,0.56566 -24.85691,1.42705 -31.62065,1.16486 -10.08955,-0.39112 -18.66894,-0.21805 -21.5,0.43372 -1.65,0.37986 -3.9,0.29228 -5,-0.19462 z m 103.5,-0.16898 c -1.375,-0.57539 -7.225,-1.33437 -13,-1.68661 l -10.5,-0.64045 0,-2.91667 c 0,-2.77758 0.41689,-3.05563 8.74234,-5.83078 8.0104,-2.67013 8.81,-3.17522 9.55049,-6.03284 0.6246,-2.41043 1.55971,-3.31349 4.11731,-3.97623 4.03645,-1.04595 4.31484,-0.79548 5.0251,4.52117 0.51664,3.86731 0.90558,4.34225 4.56476,5.57405 7.51106,2.52848 28.86214,-0.25362 30.0233,-3.91211 1.35699,-4.27551 10.4767,-0.47368 10.4767,4.36754 0,2.45115 -6.46987,5.32266 -14.94579,6.63336 -4.09519,0.63327 -8.94463,2.07773 -10.77654,3.20992 -3.14922,1.94633 -3.54467,1.97292 -7.25605,0.48792 -3.49485,-1.39837 -4.38301,-1.40911 -8.09919,-0.098 -4.792,1.69071 -4.61439,1.68399 -7.92243,0.29969 z m 186.25,0.51066 c -0.6875,-0.27741 -1.26431,-1.25439 -1.2818,-2.17105 -0.0277,-1.45364 -0.21525,-1.42433 -1.46699,0.22932 -1.39898,1.84815 -1.61894,1.8291 -8.7182,-0.75482 -4.00566,-1.45794 -9.16895,-2.64864 -11.47399,-2.64599 -2.30504,0.003 -4.49394,-0.48536 -4.86421,-1.08447 -0.4096,-0.66276 -1.83173,0.31618 -3.63182,2.5 -3.98224,4.83115 -8.00826,4.95735 -10.82395,0.33929 -2.84242,-4.66191 -2.53149,-5.62251 2.54705,-7.86899 l 4.53608,-2.00652 -2.6907,-3.18725 c -3.20439,-3.79571 -6.3289,-10.34435 -6.35951,-13.32883 -0.015,-1.4606 -0.84498,-2.34816 -2.61021,-2.7912 -2.20921,-0.55448 -2.39911,-0.87751 -1.29671,-2.20582 0.75506,-0.9098 1.23774,-3.8539 1.16203,-7.08776 -0.19049,-8.13586 0.96056,-10.47397 4.96582,-10.08704 2.93242,0.28329 3.58114,0.99878 6.75064,7.44543 1.92856,3.92261 4.05014,7.77103 4.71462,8.55203 0.66448,0.78101 0.96365,2.35499 0.66481,3.49773 -0.36134,1.38177 0.57381,3.6055 2.79186,6.63884 1.83435,2.50861 4.5684,6.38773 6.07568,8.62025 2.22968,3.30252 3.32605,4.05913 5.88196,4.05913 1.72781,0 4.621,0.9144 6.42932,2.032 2.99431,1.85059 3.89762,1.93497 10.11803,0.94519 8.30764,-1.3219 10.6116,-2.73437 14.34002,-8.79132 4.94288,-8.02987 5.92069,-9.07268 9.41079,-10.03634 1.89594,-0.5235 5.0287,-2.74799 7.10218,-5.04309 2.36925,-2.62247 4.57131,-4.10644 6.09356,-4.10644 3.12409,0 3.00838,0.93886 -0.68914,5.59159 -2.32346,2.92369 -2.91833,4.48134 -2.43941,6.3875 1.82975,7.28254 1.77639,7.58918 -2.1484,12.34593 -2.11168,2.5593 -4.73941,5.81237 -5.83941,7.22905 -1.75877,2.26509 -3.02522,2.66934 -10.5,3.35158 -4.675,0.4267 -9.94015,1.52248 -11.70034,2.43508 -1.76019,0.9126 -3.33519,1.62374 -3.5,1.58032 -0.16481,-0.0434 -0.86216,-0.30592 -1.54966,-0.58333 z m 59.64515,-0.36247 c -2.36969,-0.55941 -4.48312,-5.00065 -3.54409,-7.44772 0.29685,-0.77357 2.80319,-2.2104 5.56965,-3.19296 4.85244,-1.72344 5.19425,-2.10489 9.68692,-10.81052 2.56134,-4.96323 4.8271,-9.2162 5.03501,-9.45105 1.11033,-1.25418 3.31677,4.22753 3.9154,9.72747 0.37717,3.46526 1.29393,6.90864 2.03725,7.65196 1.63048,1.63049 20.15689,3.08712 27.81557,2.18699 9.60795,-1.12922 10.75006,-1.93093 14.33914,-10.06549 1.7875,-4.05132 3.25,-8.24307 3.25,-9.315 0,-2.31831 2.9797,-5.25893 5.3287,-5.25893 1.0932,0 1.6713,0.82258 1.6713,2.37788 0,1.30783 0.675,3.99337 1.5,5.96788 2.8401,6.79742 1.5541,19.89693 -2.4372,24.82422 -1.7598,2.17247 -2.6879,2.34692 -13.7251,2.57992 -6.51074,0.13745 -14.9877,0.17002 -18.8377,0.0724 -3.85,-0.0976 -8.125,-0.13775 -9.5,-0.0892 -15.88473,0.56148 -30.29174,0.67012 -32.10485,0.24211 z m 224.94095,0.0812 c -2.0152,-0.39247 -4.8705,-1.50419 -6.3453,-2.47047 -2.3733,-1.55505 -2.6024,-2.17758 -1.9943,-5.41912 0.8011,-4.27003 1.8382,-5.13063 6.2082,-5.15151 2.9069,-0.0139 3.2703,-0.3637 3.9112,-3.76531 0.6535,-3.46806 0.7473,-11.54537 0.2179,-18.75 -0.1213,-1.65 0.3487,-10.38549 1.0444,-19.4122 1.8202,-23.61816 0.3975,-31.59082 -6.3161,-35.39485 -7.0288,-3.9826 -7.3162,-7.60376 -0.8262,-10.41193 4.519,-1.95534 22.3836,-2.17612 29.0366,-0.35886 3.1566,0.86224 6.304,0.88888 12.051,0.10201 4.2782,-0.58577 11.8499,-1.12824 16.8261,-1.20551 7.4757,-0.11607 9.5012,0.19152 11.6587,1.77043 3.6958,2.70476 5.7139,9.34515 5.5734,18.33905 -0.1612,10.31735 -0.9426,13.50686 -3.3954,13.8596 -4.1619,0.59853 -5.4611,-1.75448 -6.3597,-11.51831 -0.4733,-5.14289 -1.4568,-9.96234 -2.2209,-10.88301 -1.2093,-1.45713 -3.2645,-1.58413 -17.3885,-1.0745 -8.8095,0.31787 -17.8819,1.09532 -20.1609,1.72767 l -4.1438,1.14974 -0.7094,12.75543 c -0.5964,10.72214 -0.4537,13.25 0.8949,15.85807 1.5569,3.0106 1.7602,3.08541 6.8532,2.52162 9.521,-1.05395 14.9624,-5.74716 15.1357,-13.05444 0.096,-4.03256 0.4161,-4.77001 2.0733,-4.77001 1.116,0 2.9943,1.50717 4.3617,3.5 2.3487,3.42291 2.3842,3.78635 1.6131,16.5 -0.4337,7.15 -0.7129,15.1375 -0.6205,17.75 0.1768,4.99319 0.084,5.09697 -3.6712,4.09182 -1.7008,-0.4553 -3.1787,-2.46317 -5.3107,-7.21484 -1.6247,-3.62118 -3.4892,-6.92426 -4.1433,-7.34016 -1.6915,-1.07549 -13.9004,-0.93891 -15.6621,0.17522 -0.9032,0.57116 -1.7844,3.5628 -2.2783,7.73468 -0.443,3.74181 -1.061,8.69035 -1.3734,10.99678 -0.6795,5.01753 0.8939,10.28473 4.2711,14.29831 2.3205,2.75785 2.9224,2.93954 9.664,2.91752 3.9542,-0.0129 7.8644,0.0988 8.6894,0.24822 0.825,0.14944 5.809,-0.0975 11.0756,-0.54876 11.3882,-0.97579 11.4091,-0.99653 12.8863,-12.77735 0.8426,-6.71968 1.478,-8.66138 3.2911,-10.05719 1.2359,-0.95138 2.5346,-1.73978 2.8862,-1.75201 1.734,-0.0603 5.0852,3.91341 6.3063,7.47776 1.1341,3.31017 1.1462,4.53714 0.07,7.11465 -0.755,1.80823 -1.0869,5.00916 -0.7913,7.63142 0.6089,5.40261 -0.9614,10.70211 -4.0033,13.50987 -2.1069,1.94468 -2.8772,2.00648 -14.9894,1.20247 -7.6297,-0.50645 -15.0752,-0.46974 -18.5,0.0912 -6.5415,1.07143 -29.9061,1.07591 -35.3955,0.007 z m 515.1639,-0.007 c -1.375,-0.41315 -5.6776,-0.53476 -9.5613,-0.27025 -7.5185,0.51206 -24.0819,-1.39281 -24.9978,-2.87488 -1.0657,-1.72433 4.3985,-5.85503 8.6431,-6.53376 4.6386,-0.74174 7.916,-3.33232 7.916,-6.25708 0,-1.34416 0.8891,-2.01699 3.0926,-2.3404 1.7491,-0.25671 3.2334,0.0198 3.4165,0.6365 0.1781,0.59972 0.6025,2.35755 0.943,3.9063 0.8744,3.97726 6.2703,6.10255 13.5595,5.34068 9.5214,-0.99519 15.9884,-2.70995 15.9884,-4.23944 0,-1.77416 6.0739,-1.94324 7.8,-0.21714 0.66,0.66 1.2,2.25796 1.2,3.55103 0,2.84459 -3.541,4.54152 -13.0072,6.23327 -3.571,0.6382 -7.4895,1.80281 -8.7076,2.58803 -2.4209,1.5605 -2.6275,1.57618 -6.2852,0.47714 z m -183.5,-1.08174 c -2.75,-0.29275 -6.673,-1.30525 -8.7179,-2.25 -2.0448,-0.94475 -4.5652,-1.71773 -5.6008,-1.71773 -3.8774,0 -8.2832,-2.2964 -9.7139,-5.0631 -0.8096,-1.56544 -3.2462,-4.27214 -5.4148,-6.01487 -3.9327,-3.16042 -6.0526,-7.18629 -6.0526,-11.49453 0,-1.25073 -1.125,-3.61104 -2.5,-5.24513 -1.375,-1.6341 -2.5,-3.80755 -2.5,-4.82991 0,-1.02235 -0.9211,-5.00739 -2.0468,-8.85564 -3.7045,-12.66352 -0.2996,-30.16488 8.0021,-41.13121 2.7746,-3.66513 5.0447,-7.43218 5.0447,-8.37122 0,-1.25624 3.1045,-2.90271 11.75,-6.23151 15.7802,-6.07591 17.5639,-6.31255 27.5082,-3.64945 6.7363,1.80396 9.1552,3.02184 13.2418,6.66705 6.2637,5.58706 8.2096,8.52029 9.0611,13.65865 0.3701,2.23348 1.9703,7.95225 3.5559,12.70837 3.3361,10.00654 3.9117,21.45475 1.383,27.50674 -0.825,1.97451 -1.5,5.27226 -1.5,7.32834 0,2.33849 -0.9361,5.1178 -2.5,7.42228 -1.375,2.02618 -2.5,4.35181 -2.5,5.16807 0,3.02189 -5.9647,13.05757 -10.1646,17.10212 -5.4571,5.25529 -13.2435,8.04764 -20.3354,7.29268 z m 7.5,-16.66119 c 4.9248,-1.54929 5.9183,-2.36173 9.5,-7.76839 l 4,-6.03815 0.2916,-13 c 0.2154,-9.6005 -0.1223,-14.43825 -1.2912,-18.5 -0.8706,-3.025 -2.4321,-8.58671 -3.4701,-12.35935 -2.2646,-8.23154 -4.6218,-10.96995 -11.7325,-13.63043 -6.4594,-2.41677 -9.1775,-2.50502 -14.0799,-0.45717 -5.6397,2.35581 -9.2179,6.24904 -9.2179,10.02933 0,1.76451 -1.3903,6.47538 -3.0896,10.4686 -2.5507,5.99419 -2.8995,7.67745 -2,9.65176 0.5993,1.31525 1.0896,4.85488 1.0896,7.86584 0,3.83237 1.0143,8.09265 3.3813,14.20295 1.8598,4.80066 3.6675,9.66979 4.0172,10.8203 1.0096,3.32136 5.1013,6.54318 10.8171,8.51756 6.5366,2.25785 5.2998,2.23716 11.7844,0.19715 z m -1326.94582,14.0856 c -4.08835,-3.44013 -4.6535,-4.63106 -7.62524,-16.06864 -1.38978,-5.349 -3.37684,-11.32251 -4.41568,-13.27448 -1.25505,-2.35822 -2.01776,-6.24477 -2.27317,-11.58337 -0.2664,-5.56829 -1.04854,-9.40502 -2.54822,-12.5 -1.19012,-2.45611 -3.25884,-9.42775 -4.59716,-15.49253 -1.33832,-6.06479 -3.36939,-13.48979 -4.5135,-16.5 -1.14411,-3.01022 -2.08043,-6.69479 -2.08071,-8.18794 -5.5e-4,-2.98495 -2.36523,-4.78518 -6.28554,-4.78518 -1.32908,0 -3.85699,-0.50215 -5.61757,-1.11589 -2.97247,-1.03621 -3.17951,-1.40434 -2.89922,-5.15508 0.27805,-3.72095 0.61697,-4.14851 4.30183,-5.42693 5.98264,-2.07562 18.20618,-2.72877 26.06866,-1.39294 10.94366,1.8593 10.57592,1.61045 10.23271,6.92453 l -0.30137,4.66631 -5.60755,0.60295 c -3.08416,0.33162 -6.12166,0.92068 -6.75,1.30901 -1.97692,1.22181 -1.25117,6.17938 1.86626,12.74825 2.25893,4.75991 2.96928,7.61161 2.85049,11.44338 -0.087,2.80697 0.23534,5.73197 0.71634,6.5 0.481,0.76802 0.74833,2.16416 0.59408,3.10252 -0.15426,0.93836 1.10334,4.85898 2.79465,8.71249 2.20853,5.03193 3.02728,8.35819 2.90534,11.80331 -0.0997,2.81565 0.51176,6.11489 1.4803,7.98786 0.90755,1.755 1.65009,4.01313 1.65009,5.01806 0,1.00494 0.71554,2.84874 1.5901,4.09734 2.14,3.05528 4.03857,1.41847 4.77514,-4.11679 0.308,-2.31461 0.97744,-7.35838 1.48765,-11.20838 1.25125,-9.44187 3.547,-18.2006 5.9764,-22.80114 1.10399,-2.09063 2.50671,-7.04063 3.11714,-11 0.61044,-3.95937 1.84467,-10.09441 2.74273,-13.63341 1.62949,-6.42132 1.62818,-6.43777 -0.63847,-8 -5.9864,-4.12598 -7.05829,-5.74521 -5.93542,-8.96628 1.13754,-3.26313 7.14021,-7.67734 8.93318,-6.56923 0.59671,0.36879 6.38185,0.11641 12.85588,-0.56084 15.36313,-1.60715 21.21515,0.10902 20.56499,6.0309 -0.0906,0.825 -0.23323,2.25297 -0.31701,3.17328 -0.0838,0.9203 -1.34166,3.08673 -2.79531,4.81429 -2.01626,2.3962 -3.37975,3.10175 -5.75,2.97541 -1.70885,-0.0911 -3.62751,-0.12002 -4.26368,-0.0643 -1.58038,0.13843 -6.87657,13.24854 -8.32247,20.60132 -0.64894,3.3 -2.21944,8.7 -3.49001,12 -1.27057,3.3 -3.29384,10.725 -4.49615,16.5 -1.20232,5.775 -3.50198,13.15938 -5.11036,16.40972 -1.60838,3.25035 -2.92433,7.42705 -2.92433,9.28155 0,4.23741 -3.37889,14.47961 -6.61735,20.05873 -2.00012,3.44575 -3.01217,4.25 -5.34808,4.25 -1.64602,0 -4.20974,-1.11796 -5.98039,-2.60786 z M 1698.811,160.32726 c -0.9103,-1.00581 -1.6533,-2.91831 -1.6513,-4.25 0,-2.66209 3.4291,-8.92126 4.8817,-8.92126 0.5031,0 0.8939,-1.6875 0.8684,-3.75 -0.044,-3.58936 1.6246,-9.45423 4.9735,-17.47702 1.2792,-3.06465 1.3261,-4.00368 0.2638,-5.28367 -1.3816,-1.66481 -1.9539,-4.94395 -2.2842,-13.09015 -0.1704,-4.20129 -0.9564,-6.16922 -4.4569,-11.15895 -2.3375,-3.33196 -4.2556,-6.66158 -4.2625,-7.39916 -0.01,-0.74064 -3.353,-2.62428 -7.4739,-4.20724 -8.4589,-3.24934 -11.2418,-3.11782 -18.7645,0.88681 -3.1008,1.65071 -5.5631,2.31317 -7.1332,1.91911 -3.3669,-0.84503 -4.2234,1.24423 -1.4422,3.51781 l 2.3263,1.90166 -3.75,3.86256 c -3.9654,4.08444 -4.7265,7.22293 -2.25,9.27824 0.825,0.68469 1.5,1.86479 1.5,2.62244 0,0.75766 -0.675,1.37756 -1.5,1.37756 -1.888,0 -1.8894,1.02477 -0.01,4.63569 2.2129,4.24292 1.946,9.05856 -0.5768,10.40871 -2.0088,1.07511 -2.0192,1.18517 -0.292,3.09372 1.8488,2.04289 1.1517,4.76966 -1.4403,5.63364 -3.1253,1.04177 -5.628,-16.0814 -4.1901,-28.66861 0.9392,-8.2221 0.8689,-8.83641 -1.5876,-13.86967 -2.252,-4.61446 -8.9218,-11.23842 -12.5258,-12.43973 -1.6403,-0.54678 0.051,-3.4416 2.7209,-4.6583 1.3744,-0.6245 6.8267,-1.13545 12.12,-1.13545 7.6222,0 10.0116,0.35061 11.4866,1.68544 1.7466,1.58065 2.1557,1.58034 6.5788,-0.005 6.0687,-2.17511 7.8377,-2.12346 10.9434,0.31951 2.8976,2.2792 5.0929,2.49478 8.6944,0.85379 2.2404,-1.02079 2.9978,-0.75115 6.922,2.46444 2.4235,1.98586 5.6226,4.16481 7.1091,4.84212 3.6253,1.65182 14.9292,24.06852 14.0128,27.78861 -0.3319,1.34693 -0.037,5.29859 0.6553,8.78147 1.4582,7.33611 0.3016,16.60124 -3.4976,28.0167 -1.941,5.8323 -2.7435,6.99949 -5.8866,8.562 -2.0016,0.99502 -3.9165,2.68252 -4.2553,3.75 -0.788,2.48288 -4.6237,2.54589 -6.8262,0.11213 z m -965.20045,-3.62581 c -1.35,-1.35 -2.45455,-3.17234 -2.45455,-4.04966 0,-2.36342 2.46464,-6.6732 5.36632,-9.38378 2.05985,-1.92419 2.35633,-2.76173 1.5265,-4.31227 -0.78542,-1.46758 -0.52433,-2.89412 1.1001,-6.01066 1.17147,-2.24751 2.59172,-6.60699 3.15612,-9.68773 0.56439,-3.08074 1.71632,-6.37209 2.55985,-7.3141 1.47198,-1.64386 1.38559,-2.4832 -0.5956,-5.78725 -1.53402,-2.5583 -3.15911,-13.52092 -2.49589,-16.83699 0.53094,-2.65471 -0.0178,-4.01157 -3.47303,-8.58801 -2.25697,-2.98934 -5.0582,-7.26663 -6.22495,-9.50509 -1.16674,-2.23845 -2.63842,-4.07268 -3.27039,-4.07607 -0.63197,-0.003 -2.49903,-0.72477 -4.14903,-1.60307 -1.65,-0.8783 -5.58094,-2.26423 -8.73543,-3.07984 -5.16753,-1.3361 -5.89246,-1.3259 -7.32142,0.10307 -0.87231,0.8723 -2.61818,1.586 -3.87972,1.586 -1.26154,0 -3.49728,0.94673 -4.96831,2.10384 -2.06872,1.62726 -3.46139,1.95623 -6.14791,1.45223 -4.12207,-0.7733 -5.68371,1.42013 -3.06849,4.30992 2.40429,2.65671 2.00404,4.30379 -1.8551,7.63401 -4.48647,3.87156 -5.16581,7.54807 -1.95252,10.5668 1.83565,1.7245 2.14154,2.57452 1.29397,3.59578 -0.61048,0.73558 -1.73901,1.33742 -2.50784,1.33742 -1.09239,0 -0.95636,0.86545 0.62245,3.96016 2.67899,5.25127 2.7378,12.03945 0.11025,12.72657 -1.78878,0.46778 -1.81592,0.72483 -0.42738,4.04806 1.33566,3.1967 1.32069,3.70802 -0.15105,5.15688 -1.50231,1.47895 -1.75303,1.44744 -3.11666,-0.39167 -3.21864,-4.34094 -4.37093,-11.58266 -3.89842,-24.5 0.25149,-6.875 0.71991,-13.69871 1.04094,-15.16381 1.16507,-5.31707 -6.61995,-16.25762 -15.89109,-22.33231 -2.24698,-1.47228 -2.47596,-2.00436 -1.41376,-3.28525 2.52862,-3.04921 7.56373,-4.21863 18.16394,-4.21863 8.47269,0 10.7807,0.32001 12.14455,1.68386 1.5067,1.5067 2.38218,1.55142 8.32143,0.42505 8.79171,-1.66732 9.53817,-1.61194 13.0256,0.96643 3.00572,2.22223 3.88019,2.24628 12.24694,0.33683 2.18027,-0.49758 3.60572,0.27778 8.26058,4.49324 3.09409,2.80203 6.07645,5.09459 6.62746,5.09459 3.12776,0 16.15106,26.63856 15.27185,31.23787 -0.27465,1.43675 0.27054,5.68218 1.21153,9.43429 2.20663,8.79872 1.56849,14.29969 -3.53489,30.47176 -3.6487,11.56231 -4.22447,12.70242 -6.73076,13.32791 -3.24542,0.80994 -6.24074,3.29767 -6.24074,5.18316 0,2.24498 -4.91345,1.52247 -7.54545,-1.10954 z M 1278.156,156.656 c 0,-0.825 0.6609,-1.5 1.4686,-1.5 0.8946,0 1.2437,0.58629 0.893,1.5 -0.3166,0.825 -0.9774,1.5 -1.4686,1.5 -0.4911,0 -0.893,-0.675 -0.893,-1.5 z m 374.5235,-4.30983 c -0.2879,-0.28793 -0.5235,-1.76818 -0.5235,-3.28945 0,-1.84409 0.6365,-2.96796 1.9097,-3.37206 2.9876,-0.94823 4.6414,-3.37756 3.2479,-4.77104 -1.5738,-1.57383 -1.4558,-2.75762 0.275,-2.75762 2.0087,0 2.8094,3.23341 1.5929,6.43302 -0.564,1.48345 -1.0255,3.74042 -1.0255,5.0155 0,1.67291 -0.6895,2.45012 -2.4765,2.79174 -1.3621,0.26038 -2.7121,0.23783 -3,-0.0501 z M 679.156,144.73278 c 0,-3.11186 0.43192,-3.73041 3.5,-5.01233 3.87803,-1.62035 4.32022,-3.00064 1.83946,-5.74184 -1.97952,-2.18735 -0.95773,-3.70649 1.4585,-2.16844 1.76474,1.12334 2.14267,8.04723 0.50512,9.25401 -0.44169,0.3255 -0.80308,1.94182 -0.80308,3.59182 0,2.65367 -0.37519,3.03618 -3.25,3.31336 -3.11518,0.30036 -3.25,0.16609 -3.25,-3.23658 z m 297.0287,-5.04219 c -0.78635,-0.9475 -0.97961,-2.86569 -0.54681,-5.4274 0.59628,-3.52937 0.38535,-4.14807 -1.93185,-5.66636 -2.67648,-1.7537 -12.24512,-3.46879 -21.03321,-3.77002 -4.12529,-0.1414 -5.04458,-0.51512 -5.33983,-2.17081 -0.19617,-1.1 -1.30656,-2.74506 -2.46754,-3.6557 -1.79183,-1.40544 -1.91089,-1.89666 -0.78772,-3.25 1.89163,-2.27928 5.39346,-1.97501 11.21373,0.97435 4.53368,2.29739 5.77101,2.49457 11.71675,1.86717 3.65628,-0.38582 6.97839,-1.20421 7.38247,-1.81865 0.40408,-0.61444 0.74158,-3.95925 0.75,-7.43291 0.0231,-9.55022 3.02522,-13.15116 6.51883,-7.81924 1.19304,1.82082 1.3134,2.98633 0.52305,5.0651 -0.56461,1.48504 -1.02657,4.05037 -1.02657,5.70072 0,1.65035 -0.49594,3.92731 -1.10208,5.0599 -0.82451,1.54061 -0.77923,2.66253 0.17979,4.45447 0.91592,1.7114 0.97432,2.70276 0.20456,3.47252 -0.76975,0.76975 -0.63677,1.84491 0.46581,3.76604 2.13483,3.71973 0.96581,12.11623 -1.68691,12.11623 -0.99895,0 -2.36356,-0.65944 -3.03247,-1.46541 z M 611.156,137.17463 c -1.07342,-0.68036 -1.46202,-2.55516 -1.36644,-6.59242 l 0.13356,-5.64168 -4.49555,-1.9886 c -2.77496,-1.22749 -5.86181,-1.82909 -8.0653,-1.57184 -1.96337,0.22921 -5.33046,-0.18986 -7.48242,-0.93128 -2.26382,-0.77994 -5.34782,-1.07878 -7.31825,-0.70912 -3.19224,0.59886 -3.4056,0.46943 -3.4056,-2.06602 0,-1.88753 -0.62063,-2.86721 -2.05381,-3.24199 -1.5264,-0.39916 -1.97579,-1.20971 -1.75,-3.15638 0.39967,-3.44574 3.75085,-3.93318 8.18788,-1.19095 1.8436,1.13941 4.44638,2.07165 5.78396,2.07165 1.33759,0 2.87417,0.4422 3.41464,0.98267 0.57885,0.57885 3.74013,0.72517 7.69274,0.35607 6.67974,-0.62376 6.71459,-0.64289 7.71175,-4.23267 0.55093,-1.98334 1.0042,-6.17774 1.00726,-9.32089 0.005,-4.79312 0.34696,-5.89751 2.12224,-6.84762 5.15575,-2.75927 7.24281,7.59574 3.50406,17.38552 -1.62105,4.24465 -1.6391,4.80139 -0.20229,6.2382 1.22928,1.22929 1.33679,2.02757 0.48695,3.61553 -0.78791,1.47222 -0.78736,2.34121 0.002,3.13055 1.17191,1.17191 1.45331,8.7449 0.46235,12.44264 -0.64581,2.40983 -1.96498,2.79282 -4.36971,1.26863 z m 635.5801,-0.88901 c -0.3069,-0.49665 0.112,-1.45909 0.9309,-2.13876 1.2107,-1.00476 1.489,-0.94351 1.489,0.32768 0,1.8669 -1.631,3.08755 -2.4199,1.81108 z m -342.51263,-4.00355 c -0.58711,-1.09702 -1.06747,-2.88176 -1.06747,-3.96609 0,-2.68759 -7.80041,-7.7091 -15.82592,-10.18793 -8.88213,-2.74341 -18.48994,-3.44839 -28.01516,-2.05561 -7.13021,1.04257 -8.37755,0.98642 -10.61213,-0.47774 -1.5392,-1.00852 -3.47244,-1.42319 -4.9298,-1.05742 -2.09741,0.52642 -2.47583,0.1847 -3.02251,-2.72936 -0.38533,-2.05398 -2.92851,-5.98054 -6.63329,-10.24152 -3.3046,-3.80072 -6.28563,-7.97905 -6.62451,-9.28518 -0.94898,-3.65766 0.37803,-18.50666 2.00101,-22.39101 0.79716,-1.90787 3.3438,-4.99106 5.65919,-6.85153 2.31539,-1.86047 4.84425,-4.60934 5.61969,-6.10859 1.77438,-3.43066 8.30917,-5.4124 20.88555,-6.33377 8.08624,-0.59241 9.89527,-0.38103 17.78097,2.0776 8.62458,2.68901 10.75794,2.7902 18.9072,0.89681 3.61183,-0.83916 7.47427,3.0081 8.25597,8.22354 0.31834,2.12395 1.26633,5.99828 2.10664,8.60962 1.37235,4.26466 1.37107,5.20965 -0.0125,9.28494 -0.84723,2.49539 -1.5404,6.09634 -1.5404,8.00212 0,2.75489 -0.39502,3.46505 -1.92742,3.46505 -1.84245,0 -6.07258,-4.29223 -6.07258,-6.16173 0,-0.49061 -3.46022,-4.96043 -7.68937,-9.93294 l -7.68937,-9.04092 -5.06063,0.68627 c -9.35654,1.26884 -15.49916,4.29109 -22.39333,11.01783 -5.76966,5.62954 -6.35731,6.56501 -5.71836,9.10291 0.39167,1.55572 0.94951,4.53026 1.23964,6.6101 0.60467,4.33474 4.35918,7.76559 11.10135,10.14436 3.11928,1.10055 24.81474,4.57412 28.56931,4.57412 0.28552,0 2.68399,1.84936 5.32994,4.10968 5.48227,4.68327 8.31082,9.1333 8.31082,13.07503 0,1.49375 0.63217,3.07577 1.40482,3.5156 0.77265,0.43983 1.56015,1.68338 1.75,2.76344 0.47315,2.69179 -2.72395,3.20985 -4.08735,0.66232 z m 334.93253,-6.06705 c 0,-1.61754 0.4368,-3.21095 0.9707,-3.5409 1.1616,-0.71793 2.4976,3.91506 1.5644,5.42504 -1.2411,2.00821 -2.5351,1.0465 -2.5351,-1.88414 z m -296,-18.12476 c 0,-2.03374 2.07809,-4.93426 3.53518,-4.93426 1.76609,0 1.78416,0.20502 0.3043,3.45295 -1.1449,2.51278 -3.83948,3.55238 -3.83948,1.48131 z m 58.4789,-3.32605 c -1.5516,-1.13457 -1.6744,-1.66771 -0.6643,-2.88484 1.0333,-1.24509 0.8195,-1.5984 -1.2877,-2.12727 -2.3981,-0.60187 -2.5269,-0.9871 -2.5269,-7.55613 0,-3.80707 0.45,-7.20005 1,-7.53997 0.55,-0.33992 1,-1.49148 1,-2.55902 0,-1.81069 -0.7887,-1.94156 -11.75,-1.94967 -6.4625,-0.005 -14.1125,-0.29246 -17,-0.63929 -4.85295,-0.58291 -5.25,-0.47327 -5.25,1.44967 0,3.21695 -1.19176,3.29248 -6.95405,0.44076 l -5.3349,-2.64021 -3.10552,3.69892 c -3.63084,4.32461 -5.45876,4.60293 -8.35488,1.27211 -1.16051,-1.33471 -4.61666,-3.21689 -7.68033,-4.18263 -3.06368,-0.96573 -5.57032,-2.09819 -5.57032,-2.51656 0,-1.69042 4.67733,-3.87408 8.29817,-3.87408 2.76928,0 4.43417,0.65228 5.9186,2.31883 l 2.06544,2.31883 6.86878,-2.02278 c 5.64108,-1.66124 7.58182,-1.83246 10.85807,-0.95798 3.09071,0.82495 4.38365,0.76543 5.74011,-0.26425 1.26684,-0.96165 5.8056,-1.33783 16.41904,-1.36085 8.06752,-0.0175 15.39679,0.24778 16.28729,0.58949 0.8904,0.3417 2.3009,2.25337 3.1344,4.24815 1.4271,3.41557 1.3973,3.72251 -0.5121,5.26865 -1.9537,1.58203 -1.9588,1.65977 -0.1391,2.13562 1.4746,0.38563 2.0331,1.7791 2.549,6.36006 1.5876,14.09551 0.8387,16.51907 -4.0088,12.97444 z m -426.87191,-3.19 c -0.97256,-2.53445 -0.75027,-3.0319 1.89301,-4.23626 2.26848,-1.03359 2.5,-0.92806 2.5,1.13949 0,2.18916 -1.64575,4.67856 -3.09301,4.67856 -0.38116,0 -0.96616,-0.7118 -1.3,-1.58179 z M 638.406,98.9316 c -2.4195,-1.16268 -2.84875,-2.28752 -1.25,-3.2756 1.64363,-1.01582 1.14837,-2.11137 -1.5,-3.31805 -2.28289,-1.04015 -2.5,-1.68806 -2.5,-7.46051 0,-3.47679 0.4881,-6.80954 1.08466,-7.4061 0.59657,-0.59657 0.93407,-2.02092 0.75,-3.16523 -0.3194,-1.98569 -1.09329,-2.1044 -16.97218,-2.60356 -9.15064,-0.28765 -17.36465,-0.80202 -18.25335,-1.14305 -1.2131,-0.46551 -1.77076,0.15465 -2.23748,2.48823 -0.34191,1.70955 -0.77042,3.10827 -0.95224,3.10827 -0.18183,0 -2.03808,-1.15874 -4.125,-2.57498 -4.66487,-3.1657 -8.38024,-2.7034 -12.81453,1.59448 -3.7375,3.62253 -6.23178,3.81718 -7.05172,0.55029 -0.49741,-1.98183 -1.88468,-2.81739 -7.51905,-4.52878 -3.80001,-1.15422 -6.90911,-2.52525 -6.90911,-3.04674 0,-1.88151 5.15276,-4.267 9.21692,-4.267 3.13206,0 4.65907,0.5861 6.21741,2.38637 2.34006,2.70335 6.28962,2.76856 10.25654,0.16934 1.87328,-1.22742 3.9207,-1.41281 9.75957,-0.8837 4.10421,0.37191 7.63557,0.27057 7.94369,-0.22797 0.76825,-1.24307 23.97889,-2.45602 30.48421,-1.59306 4.52366,0.60008 5.60898,1.17348 7.21913,3.81401 2.39873,3.93373 2.50082,7.60774 0.2114,7.60774 -1.58596,0 -1.58621,0.0777 -0.004,1.25 2.07267,1.53579 3.90626,10.93554 3.4973,17.92859 -0.32466,5.55142 -1.04728,6.2812 -4.55201,4.59701 z m 305.75,-7.25655 c 0,-1.83118 0.67393,-2.65009 2.57322,-3.12678 3.68306,-0.92439 5.27588,1.01201 2.94816,3.5841 -2.61837,2.89327 -5.52138,2.65283 -5.52138,-0.45732 z M 575.49193,85.58903 c -0.98361,-2.56323 1.02911,-4.93303 4.18972,-4.93303 3.22571,0 4.05798,1.37215 2.23783,3.68946 -2.00385,2.55119 -5.65472,3.25754 -6.42755,1.24357 z"
     id="path2999"
     inkscape:connector-curvature="0" />
</svg>
